<mxfile host="app.diagrams.net" modified="2021-04-16T02:53:47.386Z" agent="5.0 (Windows NT 10.0; Win64; x64) AppleWebKit/537.36 (KHTML, like Gecko) Chrome/89.0.4389.128 Safari/537.36" etag="JQmVTgLG9iN6nUnwNvSu" version="14.6.1" type="github">
  <diagram id="yR-RG5oes6dqZpH_7RG8" name="Page 1">
    <mxGraphModel dx="1182" dy="536" grid="1" gridSize="10" guides="1" tooltips="1" connect="1" arrows="1" fold="1" page="1" pageScale="1" pageWidth="850" pageHeight="1100" math="0" shadow="0">
      <root>
        <mxCell id="0" />
        <mxCell id="1" parent="0" />
        <mxCell id="My5se-Vcou2Nvby08xZH-3" style="vsdxID=1;fillColor=none;gradientColor=none;strokeColor=none;strokeWidth=2;spacingTop=-3;spacingBottom=-3;spacingLeft=-3;spacingRight=-3;labelBackgroundColor=none;rounded=1;html=1;whiteSpace=wrap;" vertex="1" parent="1">
          <mxGeometry x="38" y="101" width="101" height="76" as="geometry" />
        </mxCell>
        <mxCell id="My5se-Vcou2Nvby08xZH-4" style="vsdxID=2;fillColor=#FFFFFF;gradientColor=none;shape=stencil(fZNbEoIwDEVX018mNOODT8fHBlwBA1U6IjgVFVy9hbTSFvSvaW4mJ7cNw+29SG+Ccbg3qr6Il8ybguGOcS6rQijZ6BPDPcPtqVbirOpHlVN8S7WSw3AjcqqJezWHVGVH+RZ0BxHGqwUlqPJaP/uOrclTqqOIhAcSZg9FytiXmpBHRg4tN/2jZWI03CtpkUKMLEqHrmBoCBvds5SVA5csvz26iX4KmKz1sD4kBIQAPqAzBIYSnHgygzjKDcNfC0e1RV59LbGM7hQhtoV0jQm4f4E63s8UzKCOjxnCt/7rWkp3FvQVODVnBvHPX9SH4cfTLsiypIVx8+GG6CvaLtx/AA==);strokeColor=#5e5e5e;strokeWidth=2;spacingTop=-3;spacingBottom=-3;spacingLeft=-3;spacingRight=-3;labelBackgroundColor=none;rounded=1;html=1;whiteSpace=wrap;" vertex="1" parent="My5se-Vcou2Nvby08xZH-3">
          <mxGeometry width="101" height="76" as="geometry" />
        </mxCell>
        <mxCell id="My5se-Vcou2Nvby08xZH-5" style="vsdxID=3;fillColor=#FFFFFF;gradientColor=none;shape=stencil(jZBLDsIwDERP4y1yYiHUdSkX4AQRMSQCkipt+Z2eNO6CIoG683je2NIA1Z0zLYPGrk/xzHdvewe0Ba19cJx8nyegBqg+xsSnFIdgRbcmkxrLhq1k1EhrNOmw9y+WHa5IbdZiSPIab+PHx5RB8Z4TXtROyIsPv0mFM3b51TlZLf5f/f2fh1JJEdLmp/ddX15J9dS8AQ==);strokeColor=#5e5e5e;strokeWidth=2;spacingTop=-3;spacingBottom=-3;spacingLeft=-3;spacingRight=-3;labelBackgroundColor=none;rounded=1;html=1;whiteSpace=wrap;" vertex="1" parent="My5se-Vcou2Nvby08xZH-3">
          <mxGeometry width="101" height="76" as="geometry" />
        </mxCell>
        <mxCell id="My5se-Vcou2Nvby08xZH-6" value="&lt;p style=&quot;align:center;margin-left:0;margin-right:0;margin-top:0px;margin-bottom:0px;text-indent:0;valign:middle;direction:ltr;&quot;&gt;&lt;font style=&quot;font-size:14px;font-family:Arial;color:#333333;direction:ltr;letter-spacing:0px;line-height:100%;opacity:1&quot;&gt;Wardrobe&lt;/font&gt;&lt;/p&gt;" style="text;vsdxID=1;fillColor=none;gradientColor=none;strokeColor=none;strokeWidth=2;spacingTop=-3;spacingBottom=-3;spacingLeft=-3;spacingRight=-3;labelBackgroundColor=none;rounded=1;html=1;whiteSpace=wrap;verticalAlign=middle;align=center;;html=1;" vertex="1" parent="My5se-Vcou2Nvby08xZH-3">
          <mxGeometry x="15.87" y="2.98" width="69.85" height="69.85" as="geometry" />
        </mxCell>
        <mxCell id="My5se-Vcou2Nvby08xZH-7" style="vsdxID=4;fillColor=none;gradientColor=none;strokeColor=none;strokeWidth=2;spacingTop=-3;spacingBottom=-3;spacingLeft=-3;spacingRight=-3;labelBackgroundColor=none;rounded=1;html=1;whiteSpace=wrap;" vertex="1" parent="1">
          <mxGeometry x="254" y="703" width="101" height="76" as="geometry" />
        </mxCell>
        <mxCell id="My5se-Vcou2Nvby08xZH-8" style="vsdxID=5;fillColor=#FFFFFF;gradientColor=none;shape=stencil(fZNbEoIwDEVX018mNOODT8fHBlwBA1U6IjgVFVy9hbTSFvSvaW4mJ7cNw+29SG+Ccbg3qr6Il8ybguGOcS6rQijZ6BPDPcPtqVbirOpHlVN8S7WSw3AjcqqJezWHVGVH+RZ0BxHGqwUlqPJaP/uOrclTqqOIhAcSZg9FytiXmpBHRg4tN/2jZWI03CtpkUKMLEqHrmBoCBvds5SVA5csvz26iX4KmKz1sD4kBIQAPqAzBIYSnHgygzjKDcNfC0e1RV59LbGM7hQhtoV0jQm4f4E63s8UzKCOjxnCt/7rWkp3FvQVODVnBvHPX9SH4cfTLsiypIVx8+GG6CvaLtx/AA==);strokeColor=#5e5e5e;strokeWidth=2;spacingTop=-3;spacingBottom=-3;spacingLeft=-3;spacingRight=-3;labelBackgroundColor=none;rounded=1;html=1;whiteSpace=wrap;" vertex="1" parent="My5se-Vcou2Nvby08xZH-7">
          <mxGeometry width="101" height="76" as="geometry" />
        </mxCell>
        <mxCell id="My5se-Vcou2Nvby08xZH-9" value="&lt;p style=&quot;align:center;margin-left:0;margin-right:0;margin-top:0px;margin-bottom:0px;text-indent:0;valign:middle;direction:ltr;&quot;&gt;&lt;font style=&quot;font-size:14px;font-family:Arial;color:#333333;direction:ltr;letter-spacing:0px;line-height:100%;opacity:1&quot;&gt;Footwear&lt;/font&gt;&lt;/p&gt;" style="text;vsdxID=4;fillColor=none;gradientColor=none;strokeColor=none;strokeWidth=2;spacingTop=-3;spacingBottom=-3;spacingLeft=-3;spacingRight=-3;labelBackgroundColor=none;rounded=1;html=1;whiteSpace=wrap;verticalAlign=middle;align=center;;html=1;" vertex="1" parent="My5se-Vcou2Nvby08xZH-7">
          <mxGeometry x="7.62" y="7.42" width="86.36" height="60.96" as="geometry" />
        </mxCell>
        <mxCell id="My5se-Vcou2Nvby08xZH-10" style="vsdxID=6;fillColor=none;gradientColor=none;strokeColor=none;strokeWidth=2;spacingTop=-3;spacingBottom=-3;spacingLeft=-3;spacingRight=-3;labelBackgroundColor=none;rounded=1;html=1;whiteSpace=wrap;" vertex="1" parent="1">
          <mxGeometry x="254" y="101" width="101" height="76" as="geometry" />
        </mxCell>
        <mxCell id="My5se-Vcou2Nvby08xZH-11" style="vsdxID=7;fillColor=#FFFFFF;gradientColor=none;shape=stencil(fZNbEoIwDEVX018mNOODT8fHBlwBA1U6IjgVFVy9hbTSFvSvaW4mJ7cNw+29SG+Ccbg3qr6Il8ybguGOcS6rQijZ6BPDPcPtqVbirOpHlVN8S7WSw3AjcqqJezWHVGVH+RZ0BxHGqwUlqPJaP/uOrclTqqOIhAcSZg9FytiXmpBHRg4tN/2jZWI03CtpkUKMLEqHrmBoCBvds5SVA5csvz26iX4KmKz1sD4kBIQAPqAzBIYSnHgygzjKDcNfC0e1RV59LbGM7hQhtoV0jQm4f4E63s8UzKCOjxnCt/7rWkp3FvQVODVnBvHPX9SH4cfTLsiypIVx8+GG6CvaLtx/AA==);strokeColor=#5e5e5e;strokeWidth=2;spacingTop=-3;spacingBottom=-3;spacingLeft=-3;spacingRight=-3;labelBackgroundColor=none;rounded=1;html=1;whiteSpace=wrap;" vertex="1" parent="My5se-Vcou2Nvby08xZH-10">
          <mxGeometry width="101" height="76" as="geometry" />
        </mxCell>
        <mxCell id="My5se-Vcou2Nvby08xZH-12" value="&lt;p style=&quot;align:center;margin-left:0;margin-right:0;margin-top:0px;margin-bottom:0px;text-indent:0;valign:middle;direction:ltr;&quot;&gt;&lt;font style=&quot;font-size:14px;font-family:Arial;color:#333333;direction:ltr;letter-spacing:0px;line-height:100%;opacity:1&quot;&gt;Outwear&lt;/font&gt;&lt;/p&gt;" style="text;vsdxID=6;fillColor=none;gradientColor=none;strokeColor=none;strokeWidth=2;spacingTop=-3;spacingBottom=-3;spacingLeft=-3;spacingRight=-3;labelBackgroundColor=none;rounded=1;html=1;whiteSpace=wrap;verticalAlign=middle;align=center;;html=1;" vertex="1" parent="My5se-Vcou2Nvby08xZH-10">
          <mxGeometry x="7.62" y="7.42" width="86.36" height="60.96" as="geometry" />
        </mxCell>
        <mxCell id="My5se-Vcou2Nvby08xZH-14" style="vsdxID=12;edgeStyle=none;startArrow=none;endArrow=block;startSize=5;endSize=5;strokeColor=#5E5E5E;spacingTop=-3;spacingBottom=-3;spacingLeft=-3;spacingRight=-3;verticalAlign=middle;html=1;labelBackgroundColor=none;rounded=1;" edge="1" parent="1">
          <mxGeometry relative="1" as="geometry">
            <mxPoint y="-1" as="offset" />
            <Array as="points">
              <mxPoint x="196.19" y="139" />
              <mxPoint x="196.19" y="339.66" />
            </Array>
            <mxPoint x="140" y="139" as="sourcePoint" />
            <mxPoint x="253" y="340" as="targetPoint" />
          </mxGeometry>
        </mxCell>
        <mxCell id="My5se-Vcou2Nvby08xZH-15" style="vsdxID=15;edgeStyle=none;startArrow=none;endArrow=block;startSize=5;endSize=5;strokeColor=#5E5E5E;spacingTop=-3;spacingBottom=-3;spacingLeft=-3;spacingRight=-3;verticalAlign=middle;html=1;labelBackgroundColor=none;rounded=1;" edge="1" parent="1">
          <mxGeometry relative="1" as="geometry">
            <mxPoint y="-1" as="offset" />
            <Array as="points">
              <mxPoint x="196.19" y="139" />
              <mxPoint x="196.19" y="540.32" />
            </Array>
            <mxPoint x="140" y="139" as="sourcePoint" />
            <mxPoint x="253" y="541" as="targetPoint" />
          </mxGeometry>
        </mxCell>
        <mxCell id="My5se-Vcou2Nvby08xZH-16" style="vsdxID=18;edgeStyle=none;startArrow=none;endArrow=block;startSize=5;endSize=5;strokeColor=#5E5E5E;spacingTop=-3;spacingBottom=-3;spacingLeft=-3;spacingRight=-3;verticalAlign=middle;html=1;labelBackgroundColor=none;rounded=1;" edge="1" parent="1">
          <mxGeometry relative="1" as="geometry">
            <mxPoint y="-1" as="offset" />
            <Array as="points">
              <mxPoint x="196.19" y="139" />
              <mxPoint x="196.19" y="1218.5" />
            </Array>
            <mxPoint x="140" y="139" as="sourcePoint" />
            <mxPoint x="253" y="1219" as="targetPoint" />
          </mxGeometry>
        </mxCell>
        <mxCell id="My5se-Vcou2Nvby08xZH-17" style="vsdxID=21;edgeStyle=none;startArrow=none;endArrow=block;startSize=5;endSize=5;strokeColor=#5E5E5E;spacingTop=-3;spacingBottom=-3;spacingLeft=-3;spacingRight=-3;verticalAlign=middle;html=1;labelBackgroundColor=none;rounded=1;" edge="1" parent="1">
          <mxGeometry relative="1" as="geometry">
            <mxPoint y="-1" as="offset" />
            <Array as="points">
              <mxPoint x="405.84" y="139" />
              <mxPoint x="405.84" y="43.75" />
            </Array>
            <mxPoint x="356" y="139" as="sourcePoint" />
            <mxPoint x="456" y="44" as="targetPoint" />
          </mxGeometry>
        </mxCell>
        <mxCell id="My5se-Vcou2Nvby08xZH-18" style="vsdxID=24;edgeStyle=none;startArrow=none;endArrow=block;startSize=5;endSize=5;strokeColor=#5E5E5E;spacingTop=-3;spacingBottom=-3;spacingLeft=-3;spacingRight=-3;verticalAlign=middle;html=1;labelBackgroundColor=none;rounded=1;" edge="1" parent="1">
          <mxGeometry relative="1" as="geometry">
            <mxPoint x="-1" as="offset" />
            <Array as="points" />
            <mxPoint x="356" y="139" as="sourcePoint" />
            <mxPoint x="456" y="139" as="targetPoint" />
          </mxGeometry>
        </mxCell>
        <mxCell id="My5se-Vcou2Nvby08xZH-19" style="vsdxID=27;edgeStyle=none;startArrow=none;endArrow=block;startSize=5;endSize=5;strokeColor=#5E5E5E;spacingTop=-3;spacingBottom=-3;spacingLeft=-3;spacingRight=-3;verticalAlign=middle;html=1;labelBackgroundColor=none;rounded=1;" edge="1" parent="1">
          <mxGeometry relative="1" as="geometry">
            <mxPoint y="-1" as="offset" />
            <Array as="points">
              <mxPoint x="405.84" y="139" />
              <mxPoint x="405.84" y="238.7" />
            </Array>
            <mxPoint x="356" y="139" as="sourcePoint" />
            <mxPoint x="456" y="239" as="targetPoint" />
          </mxGeometry>
        </mxCell>
        <mxCell id="My5se-Vcou2Nvby08xZH-20" style="vsdxID=30;edgeStyle=none;startArrow=none;endArrow=block;startSize=5;endSize=5;strokeColor=#5E5E5E;spacingTop=-3;spacingBottom=-3;spacingLeft=-3;spacingRight=-3;verticalAlign=middle;html=1;labelBackgroundColor=none;rounded=1;" edge="1" parent="1">
          <mxGeometry relative="1" as="geometry">
            <mxPoint as="offset" />
            <Array as="points" />
            <mxPoint x="559" y="44" as="sourcePoint" />
            <mxPoint x="610" y="44" as="targetPoint" />
          </mxGeometry>
        </mxCell>
        <mxCell id="My5se-Vcou2Nvby08xZH-21" style="vsdxID=33;edgeStyle=none;startArrow=none;endArrow=block;startSize=5;endSize=5;strokeColor=#5E5E5E;spacingTop=-3;spacingBottom=-3;spacingLeft=-3;spacingRight=-3;verticalAlign=middle;html=1;labelBackgroundColor=none;rounded=1;" edge="1" parent="1">
          <mxGeometry relative="1" as="geometry">
            <mxPoint as="offset" />
            <Array as="points" />
            <mxPoint x="559" y="139" as="sourcePoint" />
            <mxPoint x="610" y="139" as="targetPoint" />
          </mxGeometry>
        </mxCell>
        <mxCell id="My5se-Vcou2Nvby08xZH-22" style="vsdxID=36;edgeStyle=none;startArrow=none;endArrow=block;startSize=5;endSize=5;strokeColor=#5E5E5E;spacingTop=-3;spacingBottom=-3;spacingLeft=-3;spacingRight=-3;verticalAlign=middle;html=1;labelBackgroundColor=none;rounded=1;" edge="1" parent="1">
          <mxGeometry relative="1" as="geometry">
            <mxPoint as="offset" />
            <Array as="points" />
            <mxPoint x="559" y="240" as="sourcePoint" />
            <mxPoint x="610" y="240" as="targetPoint" />
          </mxGeometry>
        </mxCell>
        <mxCell id="My5se-Vcou2Nvby08xZH-23" style="vsdxID=39;edgeStyle=none;startArrow=none;endArrow=block;startSize=5;endSize=5;strokeColor=#5E5E5E;spacingTop=-3;spacingBottom=-3;spacingLeft=-3;spacingRight=-3;verticalAlign=middle;html=1;labelBackgroundColor=none;rounded=1;" edge="1" parent="1">
          <mxGeometry relative="1" as="geometry">
            <mxPoint x="-1" as="offset" />
            <Array as="points" />
            <mxPoint x="356" y="340" as="sourcePoint" />
            <mxPoint x="456" y="340" as="targetPoint" />
          </mxGeometry>
        </mxCell>
        <mxCell id="My5se-Vcou2Nvby08xZH-24" style="vsdxID=11;edgeStyle=none;startArrow=none;endArrow=block;startSize=5;endSize=5;strokeColor=#5E5E5E;spacingTop=-3;spacingBottom=-3;spacingLeft=-3;spacingRight=-3;verticalAlign=middle;html=1;labelBackgroundColor=none;rounded=1;" edge="1" parent="1">
          <mxGeometry relative="1" as="geometry">
            <mxPoint as="offset" />
            <Array as="points">
              <mxPoint x="196.19" y="139" />
              <mxPoint x="196.19" y="740.98" />
            </Array>
            <mxPoint x="140" y="139" as="sourcePoint" />
            <mxPoint x="253" y="741" as="targetPoint" />
          </mxGeometry>
        </mxCell>
        <mxCell id="My5se-Vcou2Nvby08xZH-25" style="vsdxID=45;edgeStyle=none;startArrow=none;endArrow=block;startSize=5;endSize=5;strokeColor=#5E5E5E;spacingTop=-3;spacingBottom=-3;spacingLeft=-3;spacingRight=-3;verticalAlign=middle;html=1;labelBackgroundColor=none;rounded=1;" edge="1" parent="1">
          <mxGeometry relative="1" as="geometry">
            <mxPoint x="-1" as="offset" />
            <Array as="points" />
            <mxPoint x="356" y="541" as="sourcePoint" />
            <mxPoint x="456" y="541" as="targetPoint" />
          </mxGeometry>
        </mxCell>
        <mxCell id="My5se-Vcou2Nvby08xZH-26" style="vsdxID=44;edgeStyle=none;startArrow=none;endArrow=block;startSize=5;endSize=5;strokeColor=#5E5E5E;spacingTop=-3;spacingBottom=-3;spacingLeft=-3;spacingRight=-3;verticalAlign=middle;html=1;labelBackgroundColor=none;rounded=1;" edge="1" parent="1">
          <mxGeometry relative="1" as="geometry">
            <mxPoint as="offset" />
            <Array as="points">
              <mxPoint x="405.84" y="541" />
              <mxPoint x="405.84" y="441.31" />
            </Array>
            <mxPoint x="356" y="541" as="sourcePoint" />
            <mxPoint x="456" y="441" as="targetPoint" />
          </mxGeometry>
        </mxCell>
        <mxCell id="My5se-Vcou2Nvby08xZH-27" style="vsdxID=9;fillColor=none;gradientColor=none;strokeColor=none;strokeWidth=2;spacingTop=-3;spacingBottom=-3;spacingLeft=-3;spacingRight=-3;labelBackgroundColor=none;rounded=1;html=1;whiteSpace=wrap;" vertex="1" parent="1">
          <mxGeometry x="254" y="302" width="101" height="76" as="geometry" />
        </mxCell>
        <mxCell id="My5se-Vcou2Nvby08xZH-28" style="vsdxID=10;fillColor=#FFFFFF;gradientColor=none;shape=stencil(fZNbEoIwDEVX018mNOODT8fHBlwBA1U6IjgVFVy9hbTSFvSvaW4mJ7cNw+29SG+Ccbg3qr6Il8ybguGOcS6rQijZ6BPDPcPtqVbirOpHlVN8S7WSw3AjcqqJezWHVGVH+RZ0BxHGqwUlqPJaP/uOrclTqqOIhAcSZg9FytiXmpBHRg4tN/2jZWI03CtpkUKMLEqHrmBoCBvds5SVA5csvz26iX4KmKz1sD4kBIQAPqAzBIYSnHgygzjKDcNfC0e1RV59LbGM7hQhtoV0jQm4f4E63s8UzKCOjxnCt/7rWkp3FvQVODVnBvHPX9SH4cfTLsiypIVx8+GG6CvaLtx/AA==);strokeColor=#5e5e5e;strokeWidth=2;spacingTop=-3;spacingBottom=-3;spacingLeft=-3;spacingRight=-3;labelBackgroundColor=none;rounded=1;html=1;whiteSpace=wrap;" vertex="1" parent="My5se-Vcou2Nvby08xZH-27">
          <mxGeometry width="101" height="76" as="geometry" />
        </mxCell>
        <mxCell id="My5se-Vcou2Nvby08xZH-29" value="&lt;p style=&quot;align:center;margin-left:0;margin-right:0;margin-top:0px;margin-bottom:0px;text-indent:0;valign:middle;direction:ltr;&quot;&gt;&lt;font style=&quot;font-size:14px;font-family:Arial;color:#333333;direction:ltr;letter-spacing:0px;line-height:100%;opacity:1&quot;&gt;Shirts&lt;/font&gt;&lt;font style=&quot;font-size:14px;font-family:Arial;color:#000000;direction:ltr;letter-spacing:0px;line-height:100%;opacity:1&quot;&gt; &lt;/font&gt;&lt;/p&gt;" style="text;vsdxID=9;fillColor=none;gradientColor=none;strokeColor=none;strokeWidth=2;spacingTop=-3;spacingBottom=-3;spacingLeft=-3;spacingRight=-3;labelBackgroundColor=none;rounded=1;html=1;whiteSpace=wrap;verticalAlign=middle;align=center;;html=1;" vertex="1" parent="My5se-Vcou2Nvby08xZH-27">
          <mxGeometry x="7.62" y="7.42" width="86.36" height="60.96" as="geometry" />
        </mxCell>
        <mxCell id="My5se-Vcou2Nvby08xZH-30" style="vsdxID=13;fillColor=none;gradientColor=none;strokeColor=none;strokeWidth=2;spacingTop=-3;spacingBottom=-3;spacingLeft=-3;spacingRight=-3;labelBackgroundColor=none;rounded=1;html=1;whiteSpace=wrap;" vertex="1" parent="1">
          <mxGeometry x="254" y="502" width="101" height="76" as="geometry" />
        </mxCell>
        <mxCell id="My5se-Vcou2Nvby08xZH-31" style="vsdxID=14;fillColor=#FFFFFF;gradientColor=none;shape=stencil(fZNbEoIwDEVX018mNOODT8fHBlwBA1U6IjgVFVy9hbTSFvSvaW4mJ7cNw+29SG+Ccbg3qr6Il8ybguGOcS6rQijZ6BPDPcPtqVbirOpHlVN8S7WSw3AjcqqJezWHVGVH+RZ0BxHGqwUlqPJaP/uOrclTqqOIhAcSZg9FytiXmpBHRg4tN/2jZWI03CtpkUKMLEqHrmBoCBvds5SVA5csvz26iX4KmKz1sD4kBIQAPqAzBIYSnHgygzjKDcNfC0e1RV59LbGM7hQhtoV0jQm4f4E63s8UzKCOjxnCt/7rWkp3FvQVODVnBvHPX9SH4cfTLsiypIVx8+GG6CvaLtx/AA==);strokeColor=#5e5e5e;strokeWidth=2;spacingTop=-3;spacingBottom=-3;spacingLeft=-3;spacingRight=-3;labelBackgroundColor=none;rounded=1;html=1;whiteSpace=wrap;" vertex="1" parent="My5se-Vcou2Nvby08xZH-30">
          <mxGeometry width="101" height="76" as="geometry" />
        </mxCell>
        <mxCell id="My5se-Vcou2Nvby08xZH-32" value="&lt;p style=&quot;align:center;margin-left:0;margin-right:0;margin-top:0px;margin-bottom:0px;text-indent:0;valign:middle;direction:ltr;&quot;&gt;&lt;font style=&quot;font-size:14px;font-family:Arial;color:#333333;direction:ltr;letter-spacing:0px;line-height:100%;opacity:1&quot;&gt;Bottoms&lt;/font&gt;&lt;font style=&quot;font-size:14px;font-family:Arial;color:#000000;direction:ltr;letter-spacing:0px;line-height:100%;opacity:1&quot;&gt; &lt;/font&gt;&lt;/p&gt;" style="text;vsdxID=13;fillColor=none;gradientColor=none;strokeColor=none;strokeWidth=2;spacingTop=-3;spacingBottom=-3;spacingLeft=-3;spacingRight=-3;labelBackgroundColor=none;rounded=1;html=1;whiteSpace=wrap;verticalAlign=middle;align=center;;html=1;" vertex="1" parent="My5se-Vcou2Nvby08xZH-30">
          <mxGeometry x="7.62" y="7.42" width="86.36" height="60.96" as="geometry" />
        </mxCell>
        <mxCell id="My5se-Vcou2Nvby08xZH-33" style="vsdxID=16;fillColor=none;gradientColor=none;strokeColor=none;strokeWidth=2;spacingTop=-3;spacingBottom=-3;spacingLeft=-3;spacingRight=-3;labelBackgroundColor=none;rounded=1;html=1;whiteSpace=wrap;" vertex="1" parent="1">
          <mxGeometry x="254" y="1181" width="101" height="76" as="geometry" />
        </mxCell>
        <mxCell id="My5se-Vcou2Nvby08xZH-34" style="vsdxID=17;fillColor=#FFFFFF;gradientColor=none;shape=stencil(fZNbEoIwDEVX018mNOODT8fHBlwBA1U6IjgVFVy9hbTSFvSvaW4mJ7cNw+29SG+Ccbg3qr6Il8ybguGOcS6rQijZ6BPDPcPtqVbirOpHlVN8S7WSw3AjcqqJezWHVGVH+RZ0BxHGqwUlqPJaP/uOrclTqqOIhAcSZg9FytiXmpBHRg4tN/2jZWI03CtpkUKMLEqHrmBoCBvds5SVA5csvz26iX4KmKz1sD4kBIQAPqAzBIYSnHgygzjKDcNfC0e1RV59LbGM7hQhtoV0jQm4f4E63s8UzKCOjxnCt/7rWkp3FvQVODVnBvHPX9SH4cfTLsiypIVx8+GG6CvaLtx/AA==);strokeColor=#5e5e5e;strokeWidth=2;spacingTop=-3;spacingBottom=-3;spacingLeft=-3;spacingRight=-3;labelBackgroundColor=none;rounded=1;html=1;whiteSpace=wrap;" vertex="1" parent="My5se-Vcou2Nvby08xZH-33">
          <mxGeometry width="101" height="76" as="geometry" />
        </mxCell>
        <mxCell id="My5se-Vcou2Nvby08xZH-35" value="&lt;p style=&quot;align:center;margin-left:0;margin-right:0;margin-top:0px;margin-bottom:0px;text-indent:0;valign:middle;direction:ltr;&quot;&gt;&lt;font style=&quot;font-size:14px;font-family:Arial;color:#333333;direction:ltr;letter-spacing:0px;line-height:100%;opacity:1&quot;&gt;Accessories&lt;/font&gt;&lt;/p&gt;" style="text;vsdxID=16;fillColor=none;gradientColor=none;strokeColor=none;strokeWidth=2;spacingTop=-3;spacingBottom=-3;spacingLeft=-3;spacingRight=-3;labelBackgroundColor=none;rounded=1;html=1;whiteSpace=wrap;verticalAlign=middle;align=center;;html=1;" vertex="1" parent="My5se-Vcou2Nvby08xZH-33">
          <mxGeometry x="7.62" y="7.42" width="86.36" height="60.96" as="geometry" />
        </mxCell>
        <mxCell id="My5se-Vcou2Nvby08xZH-36" style="vsdxID=19;fillColor=none;gradientColor=none;strokeColor=none;strokeWidth=2;spacingTop=-3;spacingBottom=-3;spacingLeft=-3;spacingRight=-3;labelBackgroundColor=none;rounded=1;html=1;whiteSpace=wrap;" vertex="1" parent="1">
          <mxGeometry x="457" y="11" width="101" height="66" as="geometry" />
        </mxCell>
        <mxCell id="My5se-Vcou2Nvby08xZH-37" style="vsdxID=20;fillColor=#FFFFFF;gradientColor=none;shape=stencil(fZNRboMwDIZPk9fI2AXK49R1F9gJUMlGNAZVSjfa0zfFQSRRCk+x/f/J5wQLOlza+qwEwmU0w4/6183YCnoXiLpvldGjXQk6Cjp8DUZ9m+HaNxyfa6tEmDOqYU/2VCPU5vSp74pzICkrcy6w83f4e544uTqXbhzlsiznxAdrT1fD4ixUuxBlAf63dwdN6IBkUTkHBhtMxCHJhe1GvmA+Ht4sQad7j7YqJOYBMWzhVnvbfYgMESFACPiyJYoNlLqyBPPqcFA7ibRFvRqWNkq5C7H9xuJOFlL/riL4V6jecyQMCdL1fWP2KXzwhdJrhUIBJW8nAbn9x9rFPBo8NLrreLL8ejxKNsVjSMcH);strokeColor=#5e5e5e;strokeWidth=2;spacingTop=-3;spacingBottom=-3;spacingLeft=-3;spacingRight=-3;labelBackgroundColor=none;rounded=1;html=1;whiteSpace=wrap;" vertex="1" parent="My5se-Vcou2Nvby08xZH-36">
          <mxGeometry width="101" height="66" as="geometry" />
        </mxCell>
        <mxCell id="My5se-Vcou2Nvby08xZH-38" value="&lt;p style=&quot;align:center;margin-left:0;margin-right:0;margin-top:0px;margin-bottom:0px;text-indent:0;valign:middle;direction:ltr;&quot;&gt;&lt;font style=&quot;font-size:14px;font-family:Arial;color:#333333;direction:ltr;letter-spacing:0px;line-height:100%;opacity:1&quot;&gt;Incarnation Leather Jacket&lt;/font&gt;&lt;/p&gt;" style="text;vsdxID=19;fillColor=none;gradientColor=none;strokeColor=none;strokeWidth=2;spacingTop=-3;spacingBottom=-3;spacingLeft=-3;spacingRight=-3;labelBackgroundColor=none;rounded=1;html=1;whiteSpace=wrap;verticalAlign=middle;align=center;;html=1;" vertex="1" parent="My5se-Vcou2Nvby08xZH-36">
          <mxGeometry x="7.62" y="7.58" width="86.36" height="50.8" as="geometry" />
        </mxCell>
        <mxCell id="My5se-Vcou2Nvby08xZH-39" style="vsdxID=22;fillColor=none;gradientColor=none;strokeColor=none;strokeWidth=2;spacingTop=-3;spacingBottom=-3;spacingLeft=-3;spacingRight=-3;labelBackgroundColor=none;rounded=1;html=1;whiteSpace=wrap;" vertex="1" parent="1">
          <mxGeometry x="457" y="101" width="101" height="76" as="geometry" />
        </mxCell>
        <mxCell id="My5se-Vcou2Nvby08xZH-40" style="vsdxID=23;fillColor=#FFFFFF;gradientColor=none;shape=stencil(fZNbEoIwDEVX018mNOODT8fHBlwBA1U6IjgVFVy9hbTSFvSvaW4mJ7cNw+29SG+Ccbg3qr6Il8ybguGOcS6rQijZ6BPDPcPtqVbirOpHlVN8S7WSw3AjcqqJezWHVGVH+RZ0BxHGqwUlqPJaP/uOrclTqqOIhAcSZg9FytiXmpBHRg4tN/2jZWI03CtpkUKMLEqHrmBoCBvds5SVA5csvz26iX4KmKz1sD4kBIQAPqAzBIYSnHgygzjKDcNfC0e1RV59LbGM7hQhtoV0jQm4f4E63s8UzKCOjxnCt/7rWkp3FvQVODVnBvHPX9SH4cfTLsiypIVx8+GG6CvaLtx/AA==);strokeColor=#5e5e5e;strokeWidth=2;spacingTop=-3;spacingBottom=-3;spacingLeft=-3;spacingRight=-3;labelBackgroundColor=none;rounded=1;html=1;whiteSpace=wrap;" vertex="1" parent="My5se-Vcou2Nvby08xZH-39">
          <mxGeometry width="101" height="76" as="geometry" />
        </mxCell>
        <mxCell id="My5se-Vcou2Nvby08xZH-41" value="&lt;p style=&quot;align:center;margin-left:0;margin-right:0;margin-top:0px;margin-bottom:0px;text-indent:0;valign:middle;direction:ltr;&quot;&gt;&lt;font style=&quot;font-size:14px;font-family:Arial;color:#333333;direction:ltr;letter-spacing:0px;line-height:100%;opacity:1&quot;&gt;MA+ Leather Jacket&lt;/font&gt;&lt;/p&gt;" style="text;vsdxID=22;fillColor=none;gradientColor=none;strokeColor=none;strokeWidth=2;spacingTop=-3;spacingBottom=-3;spacingLeft=-3;spacingRight=-3;labelBackgroundColor=none;rounded=1;html=1;whiteSpace=wrap;verticalAlign=middle;align=center;;html=1;" vertex="1" parent="My5se-Vcou2Nvby08xZH-39">
          <mxGeometry x="7.62" y="7.42" width="86.36" height="60.96" as="geometry" />
        </mxCell>
        <mxCell id="My5se-Vcou2Nvby08xZH-42" style="vsdxID=25;fillColor=none;gradientColor=none;strokeColor=none;strokeWidth=2;spacingTop=-3;spacingBottom=-3;spacingLeft=-3;spacingRight=-3;labelBackgroundColor=none;rounded=1;html=1;whiteSpace=wrap;" vertex="1" parent="1">
          <mxGeometry x="457" y="201" width="101" height="76" as="geometry" />
        </mxCell>
        <mxCell id="My5se-Vcou2Nvby08xZH-43" style="vsdxID=26;fillColor=#FFFFFF;gradientColor=none;shape=stencil(fZNbEoIwDEVX018mNOODT8fHBlwBA1U6IjgVFVy9hbTSFvSvaW4mJ7cNw+29SG+Ccbg3qr6Il8ybguGOcS6rQijZ6BPDPcPtqVbirOpHlVN8S7WSw3AjcqqJezWHVGVH+RZ0BxHGqwUlqPJaP/uOrclTqqOIhAcSZg9FytiXmpBHRg4tN/2jZWI03CtpkUKMLEqHrmBoCBvds5SVA5csvz26iX4KmKz1sD4kBIQAPqAzBIYSnHgygzjKDcNfC0e1RV59LbGM7hQhtoV0jQm4f4E63s8UzKCOjxnCt/7rWkp3FvQVODVnBvHPX9SH4cfTLsiypIVx8+GG6CvaLtx/AA==);strokeColor=#5e5e5e;strokeWidth=2;spacingTop=-3;spacingBottom=-3;spacingLeft=-3;spacingRight=-3;labelBackgroundColor=none;rounded=1;html=1;whiteSpace=wrap;" vertex="1" parent="My5se-Vcou2Nvby08xZH-42">
          <mxGeometry width="101" height="76" as="geometry" />
        </mxCell>
        <mxCell id="My5se-Vcou2Nvby08xZH-44" value="&lt;p style=&quot;align:center;margin-left:0;margin-right:0;margin-top:0px;margin-bottom:0px;text-indent:0;valign:middle;direction:ltr;&quot;&gt;&lt;font style=&quot;font-size:14px;font-family:Arial;color:#333333;direction:ltr;letter-spacing:0px;line-height:100%;opacity:1&quot;&gt;Overcoat&lt;/font&gt;&lt;/p&gt;" style="text;vsdxID=25;fillColor=none;gradientColor=none;strokeColor=none;strokeWidth=2;spacingTop=-3;spacingBottom=-3;spacingLeft=-3;spacingRight=-3;labelBackgroundColor=none;rounded=1;html=1;whiteSpace=wrap;verticalAlign=middle;align=center;;html=1;" vertex="1" parent="My5se-Vcou2Nvby08xZH-42">
          <mxGeometry x="7.62" y="7.42" width="86.36" height="60.96" as="geometry" />
        </mxCell>
        <mxCell id="My5se-Vcou2Nvby08xZH-45" style="vsdxID=28;fillColor=none;gradientColor=none;strokeColor=none;strokeWidth=2;spacingTop=-3;spacingBottom=-3;spacingLeft=-3;spacingRight=-3;labelBackgroundColor=none;rounded=1;html=1;whiteSpace=wrap;" vertex="1" parent="1">
          <mxGeometry x="609" y="6" width="101" height="76" as="geometry" />
        </mxCell>
        <mxCell id="My5se-Vcou2Nvby08xZH-46" style="vsdxID=29;fillColor=#FFFFFF;gradientColor=none;shape=stencil(hZNLEoIwDIZP0y1TEhFZOj4u4AkYqdIRwan4wNNbSMdJqSirJvlDvqSNwNW1zC9KgLy2pjmphy7aUuBaAOi6VEa39iRwI3B1aIw6muZWF2RfcqsEOXhUQTlxrwaZm/1OvxT5ZIRxmlCAMs/Nva/4pPgspVhHJg7WlpT7myFp7LSLaJ45uXPFEULGvgX9QD6B4okVOKwO/qSgS3F2hwGSXFqqSteMP/P5XTsTDWRhA31Pqc/MVayNEeansI89xfnpysue4ORTY+gjzlnIyVU4umAMK3/h9DGTn+8hpORzgkAE4cjRr4rhLX5h/PVm7WFYDVoaXVW0WTw+XiXrojXEzRs=);strokeColor=#5e5e5e;strokeWidth=2;spacingTop=-3;spacingBottom=-3;spacingLeft=-3;spacingRight=-3;labelBackgroundColor=none;rounded=1;html=1;whiteSpace=wrap;" vertex="1" parent="My5se-Vcou2Nvby08xZH-45">
          <mxGeometry width="101" height="76" as="geometry" />
        </mxCell>
        <mxCell id="My5se-Vcou2Nvby08xZH-47" value="&lt;p style=&quot;align:center;margin-left:0;margin-right:0;margin-top:0px;margin-bottom:0px;text-indent:0;valign:middle;direction:ltr;&quot;&gt;&lt;font style=&quot;font-size:14px;font-family:Arial;color:#333333;direction:ltr;letter-spacing:0px;line-height:100%;opacity:1&quot;&gt;Keep&lt;/font&gt;&lt;font style=&quot;font-size:14px;font-family:Arial;color:#000000;direction:ltr;letter-spacing:0px;line-height:100%;opacity:1&quot;&gt; &lt;/font&gt;&lt;/p&gt;" style="text;vsdxID=28;fillColor=none;gradientColor=none;strokeColor=none;strokeWidth=2;spacingTop=-3;spacingBottom=-3;spacingLeft=-3;spacingRight=-3;labelBackgroundColor=none;rounded=1;html=1;whiteSpace=wrap;verticalAlign=middle;align=center;;html=1;" vertex="1" parent="My5se-Vcou2Nvby08xZH-45">
          <mxGeometry x="3.17" y="2.98" width="95.25" height="69.85" as="geometry" />
        </mxCell>
        <mxCell id="My5se-Vcou2Nvby08xZH-48" style="vsdxID=65;edgeStyle=none;startArrow=none;endArrow=block;startSize=5;endSize=5;strokeColor=#5E5E5E;spacingTop=-3;spacingBottom=-3;spacingLeft=-3;spacingRight=-3;verticalAlign=middle;html=1;labelBackgroundColor=none;rounded=1;" edge="1" parent="1">
          <mxGeometry relative="1" as="geometry">
            <mxPoint as="offset" />
            <Array as="points">
              <mxPoint x="608.84" y="641" />
              <mxPoint x="608.84" y="741.33" />
            </Array>
            <mxPoint x="559" y="641" as="sourcePoint" />
            <mxPoint x="659" y="741" as="targetPoint" />
          </mxGeometry>
        </mxCell>
        <mxCell id="My5se-Vcou2Nvby08xZH-49" style="vsdxID=68;edgeStyle=none;startArrow=none;endArrow=block;startSize=5;endSize=5;strokeColor=#5E5E5E;spacingTop=-3;spacingBottom=-3;spacingLeft=-3;spacingRight=-3;verticalAlign=middle;html=1;labelBackgroundColor=none;rounded=1;" edge="1" parent="1">
          <mxGeometry relative="1" as="geometry">
            <mxPoint as="offset" />
            <Array as="points" />
            <mxPoint x="762" y="641" as="sourcePoint" />
            <mxPoint x="851" y="641" as="targetPoint" />
          </mxGeometry>
        </mxCell>
        <mxCell id="My5se-Vcou2Nvby08xZH-50" style="vsdxID=71;edgeStyle=none;startArrow=none;endArrow=block;startSize=5;endSize=5;strokeColor=#5E5E5E;spacingTop=-3;spacingBottom=-3;spacingLeft=-3;spacingRight=-3;verticalAlign=middle;html=1;labelBackgroundColor=none;rounded=1;" edge="1" parent="1">
          <mxGeometry relative="1" as="geometry">
            <mxPoint as="offset" />
            <Array as="points" />
            <mxPoint x="762" y="741" as="sourcePoint" />
            <mxPoint x="851" y="741" as="targetPoint" />
          </mxGeometry>
        </mxCell>
        <mxCell id="My5se-Vcou2Nvby08xZH-51" style="vsdxID=75;edgeStyle=none;startArrow=none;endArrow=block;startSize=5;endSize=5;strokeColor=#5E5E5E;spacingTop=-3;spacingBottom=-3;spacingLeft=-3;spacingRight=-3;verticalAlign=middle;html=1;labelBackgroundColor=none;rounded=1;" edge="1" parent="1">
          <mxGeometry relative="1" as="geometry">
            <mxPoint as="offset" />
            <Array as="points">
              <mxPoint x="608.84" y="641" />
              <mxPoint x="608.84" y="841.66" />
            </Array>
            <mxPoint x="559" y="641" as="sourcePoint" />
            <mxPoint x="659" y="842" as="targetPoint" />
          </mxGeometry>
        </mxCell>
        <mxCell id="My5se-Vcou2Nvby08xZH-52" style="vsdxID=81;edgeStyle=none;startArrow=none;endArrow=block;startSize=5;endSize=5;strokeColor=#5E5E5E;spacingTop=-3;spacingBottom=-3;spacingLeft=-3;spacingRight=-3;verticalAlign=middle;html=1;labelBackgroundColor=none;rounded=1;" edge="1" parent="1">
          <mxGeometry relative="1" as="geometry">
            <mxPoint as="offset" />
            <Array as="points">
              <mxPoint x="405.84" y="741" />
              <mxPoint x="405.84" y="1066.12" />
            </Array>
            <mxPoint x="356" y="741" as="sourcePoint" />
            <mxPoint x="456" y="1066" as="targetPoint" />
          </mxGeometry>
        </mxCell>
        <mxCell id="My5se-Vcou2Nvby08xZH-53" style="vsdxID=87;edgeStyle=none;startArrow=none;endArrow=block;startSize=5;endSize=5;strokeColor=#5E5E5E;spacingTop=-3;spacingBottom=-3;spacingLeft=-3;spacingRight=-3;verticalAlign=middle;html=1;labelBackgroundColor=none;rounded=1;" edge="1" parent="1">
          <mxGeometry relative="1" as="geometry">
            <mxPoint as="offset" />
            <Array as="points">
              <mxPoint x="608.84" y="1066" />
              <mxPoint x="608.84" y="1370.8" />
            </Array>
            <mxPoint x="559" y="1066" as="sourcePoint" />
            <mxPoint x="659" y="1371" as="targetPoint" />
          </mxGeometry>
        </mxCell>
        <mxCell id="My5se-Vcou2Nvby08xZH-54" style="vsdxID=90;edgeStyle=none;startArrow=none;endArrow=block;startSize=5;endSize=5;strokeColor=#5E5E5E;spacingTop=-3;spacingBottom=-3;spacingLeft=-3;spacingRight=-3;verticalAlign=middle;html=1;labelBackgroundColor=none;rounded=1;" edge="1" parent="1">
          <mxGeometry relative="1" as="geometry">
            <mxPoint x="-1" as="offset" />
            <Array as="points" />
            <mxPoint x="356" y="1219" as="sourcePoint" />
            <mxPoint x="456" y="1219" as="targetPoint" />
          </mxGeometry>
        </mxCell>
        <mxCell id="My5se-Vcou2Nvby08xZH-55" style="vsdxID=86;edgeStyle=none;startArrow=none;endArrow=block;startSize=5;endSize=5;strokeColor=#5E5E5E;spacingTop=-3;spacingBottom=-3;spacingLeft=-3;spacingRight=-3;verticalAlign=middle;html=1;labelBackgroundColor=none;rounded=1;" edge="1" parent="1">
          <mxGeometry relative="1" as="geometry">
            <mxPoint as="offset" />
            <Array as="points">
              <mxPoint x="608.84" y="1066" />
              <mxPoint x="608.84" y="1269.2" />
            </Array>
            <mxPoint x="559" y="1066" as="sourcePoint" />
            <mxPoint x="659" y="1270" as="targetPoint" />
          </mxGeometry>
        </mxCell>
        <mxCell id="My5se-Vcou2Nvby08xZH-56" style="vsdxID=85;edgeStyle=none;startArrow=none;endArrow=block;startSize=5;endSize=5;strokeColor=#5E5E5E;spacingTop=-3;spacingBottom=-3;spacingLeft=-3;spacingRight=-3;verticalAlign=middle;html=1;labelBackgroundColor=none;rounded=1;" edge="1" parent="1">
          <mxGeometry relative="1" as="geometry">
            <mxPoint y="-1" as="offset" />
            <Array as="points">
              <mxPoint x="608.84" y="1066" />
              <mxPoint x="608.84" y="1165.7" />
            </Array>
            <mxPoint x="559" y="1066" as="sourcePoint" />
            <mxPoint x="659" y="1166" as="targetPoint" />
          </mxGeometry>
        </mxCell>
        <mxCell id="My5se-Vcou2Nvby08xZH-57" style="vsdxID=84;edgeStyle=none;startArrow=none;endArrow=block;startSize=5;endSize=5;strokeColor=#5E5E5E;spacingTop=-3;spacingBottom=-3;spacingLeft=-3;spacingRight=-3;verticalAlign=middle;html=1;labelBackgroundColor=none;rounded=1;" edge="1" parent="1">
          <mxGeometry relative="1" as="geometry">
            <mxPoint x="-1" as="offset" />
            <Array as="points" />
            <mxPoint x="559" y="1066" as="sourcePoint" />
            <mxPoint x="659" y="1066" as="targetPoint" />
          </mxGeometry>
        </mxCell>
        <mxCell id="My5se-Vcou2Nvby08xZH-58" style="vsdxID=80;edgeStyle=none;startArrow=none;endArrow=block;startSize=5;endSize=5;strokeColor=#5E5E5E;spacingTop=-3;spacingBottom=-3;spacingLeft=-3;spacingRight=-3;verticalAlign=middle;html=1;labelBackgroundColor=none;rounded=1;" edge="1" parent="1">
          <mxGeometry relative="1" as="geometry">
            <mxPoint as="offset" />
            <Array as="points">
              <mxPoint x="405.84" y="741" />
              <mxPoint x="405.84" y="641.31" />
            </Array>
            <mxPoint x="356" y="741" as="sourcePoint" />
            <mxPoint x="456" y="641" as="targetPoint" />
          </mxGeometry>
        </mxCell>
        <mxCell id="My5se-Vcou2Nvby08xZH-59" style="vsdxID=79;edgeStyle=none;startArrow=none;endArrow=block;startSize=5;endSize=5;strokeColor=#5E5E5E;spacingTop=-3;spacingBottom=-3;spacingLeft=-3;spacingRight=-3;verticalAlign=middle;html=1;labelBackgroundColor=none;rounded=1;" edge="1" parent="1">
          <mxGeometry relative="1" as="geometry">
            <mxPoint as="offset" />
            <Array as="points">
              <mxPoint x="608.84" y="641" />
              <mxPoint x="608.84" y="941.99" />
            </Array>
            <mxPoint x="559" y="641" as="sourcePoint" />
            <mxPoint x="659" y="942" as="targetPoint" />
          </mxGeometry>
        </mxCell>
        <mxCell id="My5se-Vcou2Nvby08xZH-60" style="vsdxID=78;edgeStyle=none;startArrow=none;endArrow=block;startSize=5;endSize=5;strokeColor=#5E5E5E;spacingTop=-3;spacingBottom=-3;spacingLeft=-3;spacingRight=-3;verticalAlign=middle;html=1;labelBackgroundColor=none;rounded=1;" edge="1" parent="1">
          <mxGeometry relative="1" as="geometry">
            <mxPoint as="offset" />
            <Array as="points" />
            <mxPoint x="762" y="942" as="sourcePoint" />
            <mxPoint x="851" y="942" as="targetPoint" />
          </mxGeometry>
        </mxCell>
        <mxCell id="My5se-Vcou2Nvby08xZH-61" style="vsdxID=74;edgeStyle=none;startArrow=none;endArrow=block;startSize=5;endSize=5;strokeColor=#5E5E5E;spacingTop=-3;spacingBottom=-3;spacingLeft=-3;spacingRight=-3;verticalAlign=middle;html=1;labelBackgroundColor=none;rounded=1;" edge="1" parent="1">
          <mxGeometry relative="1" as="geometry">
            <mxPoint as="offset" />
            <Array as="points" />
            <mxPoint x="762" y="842" as="sourcePoint" />
            <mxPoint x="851" y="842" as="targetPoint" />
          </mxGeometry>
        </mxCell>
        <mxCell id="My5se-Vcou2Nvby08xZH-62" style="vsdxID=64;edgeStyle=none;startArrow=none;endArrow=block;startSize=5;endSize=5;strokeColor=#5E5E5E;spacingTop=-3;spacingBottom=-3;spacingLeft=-3;spacingRight=-3;verticalAlign=middle;html=1;labelBackgroundColor=none;rounded=1;" edge="1" parent="1">
          <mxGeometry relative="1" as="geometry">
            <mxPoint x="-1" as="offset" />
            <Array as="points" />
            <mxPoint x="559" y="641" as="sourcePoint" />
            <mxPoint x="659" y="641" as="targetPoint" />
          </mxGeometry>
        </mxCell>
        <mxCell id="My5se-Vcou2Nvby08xZH-63" style="vsdxID=31;fillColor=none;gradientColor=none;strokeColor=none;strokeWidth=2;spacingTop=-3;spacingBottom=-3;spacingLeft=-3;spacingRight=-3;labelBackgroundColor=none;rounded=1;html=1;whiteSpace=wrap;" vertex="1" parent="1">
          <mxGeometry x="609" y="101" width="101" height="76" as="geometry" />
        </mxCell>
        <mxCell id="My5se-Vcou2Nvby08xZH-64" style="vsdxID=32;fillColor=#FFFFFF;gradientColor=none;shape=stencil(hZNLEoIwDIZP0y1TEhFZOj4u4AkYqdIRwan4wNNbSMdJqSirJvlDvqSNwNW1zC9KgLy2pjmphy7aUuBaAOi6VEa39iRwI3B1aIw6muZWF2RfcqsEOXhUQTlxrwaZm/1OvxT5ZIRxmlCAMs/Nva/4pPgspVhHJg7WlpT7myFp7LSLaJ45uXPFEULGvgX9QD6B4okVOKwO/qSgS3F2hwGSXFqqSteMP/P5XTsTDWRhA31Pqc/MVayNEeansI89xfnpysue4ORTY+gjzlnIyVU4umAMK3/h9DGTn+8hpORzgkAE4cjRr4rhLX5h/PVm7WFYDVoaXVW0WTw+XiXrojXEzRs=);strokeColor=#5e5e5e;strokeWidth=2;spacingTop=-3;spacingBottom=-3;spacingLeft=-3;spacingRight=-3;labelBackgroundColor=none;rounded=1;html=1;whiteSpace=wrap;" vertex="1" parent="My5se-Vcou2Nvby08xZH-63">
          <mxGeometry width="101" height="76" as="geometry" />
        </mxCell>
        <mxCell id="My5se-Vcou2Nvby08xZH-65" value="&lt;p style=&quot;align:center;margin-left:0;margin-right:0;margin-top:0px;margin-bottom:0px;text-indent:0;valign:middle;direction:ltr;&quot;&gt;&lt;font style=&quot;font-size:14px;font-family:Arial;color:#333333;direction:ltr;letter-spacing:0px;line-height:100%;opacity:1&quot;&gt;Sell&lt;/font&gt;&lt;font style=&quot;font-size:14px;font-family:Arial;color:#000000;direction:ltr;letter-spacing:0px;line-height:100%;opacity:1&quot;&gt; &lt;/font&gt;&lt;/p&gt;" style="text;vsdxID=31;fillColor=none;gradientColor=none;strokeColor=none;strokeWidth=2;spacingTop=-3;spacingBottom=-3;spacingLeft=-3;spacingRight=-3;labelBackgroundColor=none;rounded=1;html=1;whiteSpace=wrap;verticalAlign=middle;align=center;;html=1;" vertex="1" parent="My5se-Vcou2Nvby08xZH-63">
          <mxGeometry x="3.17" y="2.98" width="95.25" height="69.85" as="geometry" />
        </mxCell>
        <mxCell id="My5se-Vcou2Nvby08xZH-66" style="vsdxID=34;fillColor=none;gradientColor=none;strokeColor=none;strokeWidth=2;spacingTop=-3;spacingBottom=-3;spacingLeft=-3;spacingRight=-3;labelBackgroundColor=none;rounded=1;html=1;whiteSpace=wrap;" vertex="1" parent="1">
          <mxGeometry x="609" y="201" width="101" height="76" as="geometry" />
        </mxCell>
        <mxCell id="My5se-Vcou2Nvby08xZH-67" style="vsdxID=35;fillColor=#FFFFFF;gradientColor=none;shape=stencil(hZNLEoIwDIZP0y1TEhFZOj4u4AkYqdIRwan4wNNbSMdJqSirJvlDvqSNwNW1zC9KgLy2pjmphy7aUuBaAOi6VEa39iRwI3B1aIw6muZWF2RfcqsEOXhUQTlxrwaZm/1OvxT5ZIRxmlCAMs/Nva/4pPgspVhHJg7WlpT7myFp7LSLaJ45uXPFEULGvgX9QD6B4okVOKwO/qSgS3F2hwGSXFqqSteMP/P5XTsTDWRhA31Pqc/MVayNEeansI89xfnpysue4ORTY+gjzlnIyVU4umAMK3/h9DGTn+8hpORzgkAE4cjRr4rhLX5h/PVm7WFYDVoaXVW0WTw+XiXrojXEzRs=);strokeColor=#5e5e5e;strokeWidth=2;spacingTop=-3;spacingBottom=-3;spacingLeft=-3;spacingRight=-3;labelBackgroundColor=none;rounded=1;html=1;whiteSpace=wrap;" vertex="1" parent="My5se-Vcou2Nvby08xZH-66">
          <mxGeometry width="101" height="76" as="geometry" />
        </mxCell>
        <mxCell id="My5se-Vcou2Nvby08xZH-68" value="&lt;p style=&quot;align:center;margin-left:0;margin-right:0;margin-top:0px;margin-bottom:0px;text-indent:0;valign:middle;direction:ltr;&quot;&gt;&lt;font style=&quot;font-size:14px;font-family:Arial;color:#333333;direction:ltr;letter-spacing:0px;line-height:100%;opacity:1&quot;&gt;Unsure&lt;/font&gt;&lt;/p&gt;" style="text;vsdxID=34;fillColor=none;gradientColor=none;strokeColor=none;strokeWidth=2;spacingTop=-3;spacingBottom=-3;spacingLeft=-3;spacingRight=-3;labelBackgroundColor=none;rounded=1;html=1;whiteSpace=wrap;verticalAlign=middle;align=center;;html=1;" vertex="1" parent="My5se-Vcou2Nvby08xZH-66">
          <mxGeometry x="3.17" y="2.98" width="95.25" height="69.85" as="geometry" />
        </mxCell>
        <mxCell id="My5se-Vcou2Nvby08xZH-69" style="vsdxID=37;fillColor=none;gradientColor=none;strokeColor=none;strokeWidth=2;spacingTop=-3;spacingBottom=-3;spacingLeft=-3;spacingRight=-3;labelBackgroundColor=none;rounded=1;html=1;whiteSpace=wrap;" vertex="1" parent="1">
          <mxGeometry x="457" y="302" width="101" height="76" as="geometry" />
        </mxCell>
        <mxCell id="My5se-Vcou2Nvby08xZH-70" style="vsdxID=38;fillColor=#FFFFFF;gradientColor=none;shape=stencil(fZNbEoIwDEVX018mNOODT8fHBlwBA1U6IjgVFVy9hbTSFvSvaW4mJ7cNw+29SG+Ccbg3qr6Il8ybguGOcS6rQijZ6BPDPcPtqVbirOpHlVN8S7WSw3AjcqqJezWHVGVH+RZ0BxHGqwUlqPJaP/uOrclTqqOIhAcSZg9FytiXmpBHRg4tN/2jZWI03CtpkUKMLEqHrmBoCBvds5SVA5csvz26iX4KmKz1sD4kBIQAPqAzBIYSnHgygzjKDcNfC0e1RV59LbGM7hQhtoV0jQm4f4E63s8UzKCOjxnCt/7rWkp3FvQVODVnBvHPX9SH4cfTLsiypIVx8+GG6CvaLtx/AA==);strokeColor=#5e5e5e;strokeWidth=2;spacingTop=-3;spacingBottom=-3;spacingLeft=-3;spacingRight=-3;labelBackgroundColor=none;rounded=1;html=1;whiteSpace=wrap;" vertex="1" parent="My5se-Vcou2Nvby08xZH-69">
          <mxGeometry width="101" height="76" as="geometry" />
        </mxCell>
        <mxCell id="My5se-Vcou2Nvby08xZH-71" value="&lt;p style=&quot;align:center;margin-left:0;margin-right:0;margin-top:0px;margin-bottom:0px;text-indent:0;valign:middle;direction:ltr;&quot;&gt;&lt;font style=&quot;font-size:14px;font-family:Arial;color:#333333;direction:ltr;letter-spacing:0px;line-height:100%;opacity:1&quot;&gt;Plain T-Shirts&lt;/font&gt;&lt;/p&gt;" style="text;vsdxID=37;fillColor=none;gradientColor=none;strokeColor=none;strokeWidth=2;spacingTop=-3;spacingBottom=-3;spacingLeft=-3;spacingRight=-3;labelBackgroundColor=none;rounded=1;html=1;whiteSpace=wrap;verticalAlign=middle;align=center;;html=1;" vertex="1" parent="My5se-Vcou2Nvby08xZH-69">
          <mxGeometry x="7.62" y="7.42" width="86.36" height="60.96" as="geometry" />
        </mxCell>
        <mxCell id="My5se-Vcou2Nvby08xZH-72" style="vsdxID=40;fillColor=none;gradientColor=none;strokeColor=none;strokeWidth=2;spacingTop=-3;spacingBottom=-3;spacingLeft=-3;spacingRight=-3;labelBackgroundColor=none;rounded=1;html=1;whiteSpace=wrap;" vertex="1" parent="1">
          <mxGeometry x="457" y="402" width="101" height="76" as="geometry" />
        </mxCell>
        <mxCell id="My5se-Vcou2Nvby08xZH-73" style="vsdxID=41;fillColor=#FFFFFF;gradientColor=none;shape=stencil(fZNbEoIwDEVX018mNOODT8fHBlwBA1U6IjgVFVy9hbTSFvSvaW4mJ7cNw+29SG+Ccbg3qr6Il8ybguGOcS6rQijZ6BPDPcPtqVbirOpHlVN8S7WSw3AjcqqJezWHVGVH+RZ0BxHGqwUlqPJaP/uOrclTqqOIhAcSZg9FytiXmpBHRg4tN/2jZWI03CtpkUKMLEqHrmBoCBvds5SVA5csvz26iX4KmKz1sD4kBIQAPqAzBIYSnHgygzjKDcNfC0e1RV59LbGM7hQhtoV0jQm4f4E63s8UzKCOjxnCt/7rWkp3FvQVODVnBvHPX9SH4cfTLsiypIVx8+GG6CvaLtx/AA==);strokeColor=#5e5e5e;strokeWidth=2;spacingTop=-3;spacingBottom=-3;spacingLeft=-3;spacingRight=-3;labelBackgroundColor=none;rounded=1;html=1;whiteSpace=wrap;" vertex="1" parent="My5se-Vcou2Nvby08xZH-72">
          <mxGeometry width="101" height="76" as="geometry" />
        </mxCell>
        <mxCell id="My5se-Vcou2Nvby08xZH-74" value="&lt;p style=&quot;align:center;margin-left:0;margin-right:0;margin-top:0px;margin-bottom:0px;text-indent:0;valign:middle;direction:ltr;&quot;&gt;&lt;font style=&quot;font-size:14px;font-family:Arial;color:#333333;direction:ltr;letter-spacing:0px;line-height:100%;opacity:1&quot;&gt;Black Jeans&lt;/font&gt;&lt;font style=&quot;font-size:14px;font-family:Arial;color:#000000;direction:ltr;letter-spacing:0px;line-height:100%;opacity:1&quot;&gt; &lt;/font&gt;&lt;/p&gt;" style="text;vsdxID=40;fillColor=none;gradientColor=none;strokeColor=none;strokeWidth=2;spacingTop=-3;spacingBottom=-3;spacingLeft=-3;spacingRight=-3;labelBackgroundColor=none;rounded=1;html=1;whiteSpace=wrap;verticalAlign=middle;align=center;;html=1;" vertex="1" parent="My5se-Vcou2Nvby08xZH-72">
          <mxGeometry x="7.62" y="7.42" width="86.36" height="60.96" as="geometry" />
        </mxCell>
        <mxCell id="My5se-Vcou2Nvby08xZH-75" style="vsdxID=42;fillColor=none;gradientColor=none;strokeColor=none;strokeWidth=2;spacingTop=-3;spacingBottom=-3;spacingLeft=-3;spacingRight=-3;labelBackgroundColor=none;rounded=1;html=1;whiteSpace=wrap;" vertex="1" parent="1">
          <mxGeometry x="457" y="502" width="101" height="76" as="geometry" />
        </mxCell>
        <mxCell id="My5se-Vcou2Nvby08xZH-76" style="vsdxID=43;fillColor=#FFFFFF;gradientColor=none;shape=stencil(fZNbEoIwDEVX018mNOODT8fHBlwBA1U6IjgVFVy9hbTSFvSvaW4mJ7cNw+29SG+Ccbg3qr6Il8ybguGOcS6rQijZ6BPDPcPtqVbirOpHlVN8S7WSw3AjcqqJezWHVGVH+RZ0BxHGqwUlqPJaP/uOrclTqqOIhAcSZg9FytiXmpBHRg4tN/2jZWI03CtpkUKMLEqHrmBoCBvds5SVA5csvz26iX4KmKz1sD4kBIQAPqAzBIYSnHgygzjKDcNfC0e1RV59LbGM7hQhtoV0jQm4f4E63s8UzKCOjxnCt/7rWkp3FvQVODVnBvHPX9SH4cfTLsiypIVx8+GG6CvaLtx/AA==);strokeColor=#5e5e5e;strokeWidth=2;spacingTop=-3;spacingBottom=-3;spacingLeft=-3;spacingRight=-3;labelBackgroundColor=none;rounded=1;html=1;whiteSpace=wrap;" vertex="1" parent="My5se-Vcou2Nvby08xZH-75">
          <mxGeometry width="101" height="76" as="geometry" />
        </mxCell>
        <mxCell id="My5se-Vcou2Nvby08xZH-77" value="&lt;p style=&quot;align:center;margin-left:0;margin-right:0;margin-top:0px;margin-bottom:0px;text-indent:0;valign:middle;direction:ltr;&quot;&gt;&lt;font style=&quot;font-size:14px;font-family:Arial;color:#333333;direction:ltr;letter-spacing:0px;line-height:100%;opacity:1&quot;&gt;Wool Pants&lt;/font&gt;&lt;/p&gt;" style="text;vsdxID=42;fillColor=none;gradientColor=none;strokeColor=none;strokeWidth=2;spacingTop=-3;spacingBottom=-3;spacingLeft=-3;spacingRight=-3;labelBackgroundColor=none;rounded=1;html=1;whiteSpace=wrap;verticalAlign=middle;align=center;;html=1;" vertex="1" parent="My5se-Vcou2Nvby08xZH-75">
          <mxGeometry x="7.62" y="7.42" width="86.36" height="60.96" as="geometry" />
        </mxCell>
        <mxCell id="My5se-Vcou2Nvby08xZH-78" style="vsdxID=46;fillColor=none;gradientColor=none;strokeColor=none;strokeWidth=2;spacingTop=-3;spacingBottom=-3;spacingLeft=-3;spacingRight=-3;labelBackgroundColor=none;rounded=1;html=1;whiteSpace=wrap;" vertex="1" parent="1">
          <mxGeometry x="457" y="603" width="101" height="76" as="geometry" />
        </mxCell>
        <mxCell id="My5se-Vcou2Nvby08xZH-79" style="vsdxID=47;fillColor=#FFFFFF;gradientColor=none;shape=stencil(fZNbEoIwDEVX018mNOODT8fHBlwBA1U6IjgVFVy9hbTSFvSvaW4mJ7cNw+29SG+Ccbg3qr6Il8ybguGOcS6rQijZ6BPDPcPtqVbirOpHlVN8S7WSw3AjcqqJezWHVGVH+RZ0BxHGqwUlqPJaP/uOrclTqqOIhAcSZg9FytiXmpBHRg4tN/2jZWI03CtpkUKMLEqHrmBoCBvds5SVA5csvz26iX4KmKz1sD4kBIQAPqAzBIYSnHgygzjKDcNfC0e1RV59LbGM7hQhtoV0jQm4f4E63s8UzKCOjxnCt/7rWkp3FvQVODVnBvHPX9SH4cfTLsiypIVx8+GG6CvaLtx/AA==);strokeColor=#5e5e5e;strokeWidth=2;spacingTop=-3;spacingBottom=-3;spacingLeft=-3;spacingRight=-3;labelBackgroundColor=none;rounded=1;html=1;whiteSpace=wrap;" vertex="1" parent="My5se-Vcou2Nvby08xZH-78">
          <mxGeometry width="101" height="76" as="geometry" />
        </mxCell>
        <mxCell id="My5se-Vcou2Nvby08xZH-80" value="&lt;p style=&quot;align:center;margin-left:0;margin-right:0;margin-top:0px;margin-bottom:0px;text-indent:0;valign:middle;direction:ltr;&quot;&gt;&lt;font style=&quot;font-size:14px;font-family:Arial;color:#333333;direction:ltr;letter-spacing:0px;line-height:100%;opacity:1&quot;&gt;Boots&lt;/font&gt;&lt;font style=&quot;font-size:14px;font-family:Arial;color:#000000;direction:ltr;letter-spacing:0px;line-height:100%;opacity:1&quot;&gt; &lt;/font&gt;&lt;/p&gt;" style="text;vsdxID=46;fillColor=none;gradientColor=none;strokeColor=none;strokeWidth=2;spacingTop=-3;spacingBottom=-3;spacingLeft=-3;spacingRight=-3;labelBackgroundColor=none;rounded=1;html=1;whiteSpace=wrap;verticalAlign=middle;align=center;;html=1;" vertex="1" parent="My5se-Vcou2Nvby08xZH-78">
          <mxGeometry x="7.62" y="7.42" width="86.36" height="60.96" as="geometry" />
        </mxCell>
        <mxCell id="My5se-Vcou2Nvby08xZH-81" style="vsdxID=48;fillColor=none;gradientColor=none;strokeColor=none;strokeWidth=2;spacingTop=-3;spacingBottom=-3;spacingLeft=-3;spacingRight=-3;labelBackgroundColor=none;rounded=1;html=1;whiteSpace=wrap;" vertex="1" parent="1">
          <mxGeometry x="660" y="703" width="101" height="76" as="geometry" />
        </mxCell>
        <mxCell id="My5se-Vcou2Nvby08xZH-82" style="vsdxID=49;fillColor=#FFFFFF;gradientColor=none;shape=stencil(fZNbEoIwDEVX018mNOODT8fHBlwBA1U6IjgVFVy9hbTSFvSvaW4mJ7cNw+29SG+Ccbg3qr6Il8ybguGOcS6rQijZ6BPDPcPtqVbirOpHlVN8S7WSw3AjcqqJezWHVGVH+RZ0BxHGqwUlqPJaP/uOrclTqqOIhAcSZg9FytiXmpBHRg4tN/2jZWI03CtpkUKMLEqHrmBoCBvds5SVA5csvz26iX4KmKz1sD4kBIQAPqAzBIYSnHgygzjKDcNfC0e1RV59LbGM7hQhtoV0jQm4f4E63s8UzKCOjxnCt/7rWkp3FvQVODVnBvHPX9SH4cfTLsiypIVx8+GG6CvaLtx/AA==);strokeColor=#5e5e5e;strokeWidth=2;spacingTop=-3;spacingBottom=-3;spacingLeft=-3;spacingRight=-3;labelBackgroundColor=none;rounded=1;html=1;whiteSpace=wrap;" vertex="1" parent="My5se-Vcou2Nvby08xZH-81">
          <mxGeometry width="101" height="76" as="geometry" />
        </mxCell>
        <mxCell id="My5se-Vcou2Nvby08xZH-83" value="&lt;p style=&quot;align:center;margin-left:0;margin-right:0;margin-top:0px;margin-bottom:0px;text-indent:0;valign:middle;direction:ltr;&quot;&gt;&lt;font style=&quot;font-size:14px;font-family:Arial;color:#333333;direction:ltr;letter-spacing:0px;line-height:100%;opacity:1&quot;&gt;S21M&lt;/font&gt;&lt;font style=&quot;font-size:14px;font-family:Arial;color:#000000;direction:ltr;letter-spacing:0px;line-height:100%;opacity:1&quot;&gt; #1&lt;/font&gt;&lt;/p&gt;" style="text;vsdxID=48;fillColor=none;gradientColor=none;strokeColor=none;strokeWidth=2;spacingTop=-3;spacingBottom=-3;spacingLeft=-3;spacingRight=-3;labelBackgroundColor=none;rounded=1;html=1;whiteSpace=wrap;verticalAlign=middle;align=center;;html=1;" vertex="1" parent="My5se-Vcou2Nvby08xZH-81">
          <mxGeometry x="7.62" y="7.42" width="86.36" height="60.96" as="geometry" />
        </mxCell>
        <mxCell id="My5se-Vcou2Nvby08xZH-84" style="vsdxID=50;fillColor=none;gradientColor=none;strokeColor=none;strokeWidth=2;spacingTop=-3;spacingBottom=-3;spacingLeft=-3;spacingRight=-3;labelBackgroundColor=none;rounded=1;html=1;whiteSpace=wrap;" vertex="1" parent="1">
          <mxGeometry x="660" y="603" width="101" height="76" as="geometry" />
        </mxCell>
        <mxCell id="My5se-Vcou2Nvby08xZH-85" style="vsdxID=51;fillColor=#FFFFFF;gradientColor=none;shape=stencil(fZNbEoIwDEVX018mNOODT8fHBlwBA1U6IjgVFVy9hbTSFvSvaW4mJ7cNw+29SG+Ccbg3qr6Il8ybguGOcS6rQijZ6BPDPcPtqVbirOpHlVN8S7WSw3AjcqqJezWHVGVH+RZ0BxHGqwUlqPJaP/uOrclTqqOIhAcSZg9FytiXmpBHRg4tN/2jZWI03CtpkUKMLEqHrmBoCBvds5SVA5csvz26iX4KmKz1sD4kBIQAPqAzBIYSnHgygzjKDcNfC0e1RV59LbGM7hQhtoV0jQm4f4E63s8UzKCOjxnCt/7rWkp3FvQVODVnBvHPX9SH4cfTLsiypIVx8+GG6CvaLtx/AA==);strokeColor=#5e5e5e;strokeWidth=2;spacingTop=-3;spacingBottom=-3;spacingLeft=-3;spacingRight=-3;labelBackgroundColor=none;rounded=1;html=1;whiteSpace=wrap;" vertex="1" parent="My5se-Vcou2Nvby08xZH-84">
          <mxGeometry width="101" height="76" as="geometry" />
        </mxCell>
        <mxCell id="My5se-Vcou2Nvby08xZH-86" value="&lt;p style=&quot;align:center;margin-left:0;margin-right:0;margin-top:0px;margin-bottom:0px;text-indent:0;valign:middle;direction:ltr;&quot;&gt;&lt;font style=&quot;font-size:14px;font-family:Arial;color:#333333;direction:ltr;letter-spacing:0px;line-height:100%;opacity:1&quot;&gt;S21M&lt;/font&gt;&lt;font style=&quot;font-size:14px;font-family:Arial;color:#000000;direction:ltr;letter-spacing:0px;line-height:100%;opacity:1&quot;&gt; #2&lt;/font&gt;&lt;/p&gt;" style="text;vsdxID=50;fillColor=none;gradientColor=none;strokeColor=none;strokeWidth=2;spacingTop=-3;spacingBottom=-3;spacingLeft=-3;spacingRight=-3;labelBackgroundColor=none;rounded=1;html=1;whiteSpace=wrap;verticalAlign=middle;align=center;;html=1;" vertex="1" parent="My5se-Vcou2Nvby08xZH-84">
          <mxGeometry x="7.62" y="7.42" width="86.36" height="60.96" as="geometry" />
        </mxCell>
        <mxCell id="My5se-Vcou2Nvby08xZH-87" style="vsdxID=52;fillColor=none;gradientColor=none;strokeColor=none;strokeWidth=2;spacingTop=-3;spacingBottom=-3;spacingLeft=-3;spacingRight=-3;labelBackgroundColor=none;rounded=1;html=1;whiteSpace=wrap;" vertex="1" parent="1">
          <mxGeometry x="660" y="803" width="101" height="76" as="geometry" />
        </mxCell>
        <mxCell id="My5se-Vcou2Nvby08xZH-88" style="vsdxID=53;fillColor=#FFFFFF;gradientColor=none;shape=stencil(fZNbEoIwDEVX018mNOODT8fHBlwBA1U6IjgVFVy9hbTSFvSvaW4mJ7cNw+29SG+Ccbg3qr6Il8ybguGOcS6rQijZ6BPDPcPtqVbirOpHlVN8S7WSw3AjcqqJezWHVGVH+RZ0BxHGqwUlqPJaP/uOrclTqqOIhAcSZg9FytiXmpBHRg4tN/2jZWI03CtpkUKMLEqHrmBoCBvds5SVA5csvz26iX4KmKz1sD4kBIQAPqAzBIYSnHgygzjKDcNfC0e1RV59LbGM7hQhtoV0jQm4f4E63s8UzKCOjxnCt/7rWkp3FvQVODVnBvHPX9SH4cfTLsiypIVx8+GG6CvaLtx/AA==);strokeColor=#5e5e5e;strokeWidth=2;spacingTop=-3;spacingBottom=-3;spacingLeft=-3;spacingRight=-3;labelBackgroundColor=none;rounded=1;html=1;whiteSpace=wrap;" vertex="1" parent="My5se-Vcou2Nvby08xZH-87">
          <mxGeometry width="101" height="76" as="geometry" />
        </mxCell>
        <mxCell id="My5se-Vcou2Nvby08xZH-89" value="&lt;p style=&quot;align:center;margin-left:0;margin-right:0;margin-top:0px;margin-bottom:0px;text-indent:0;valign:middle;direction:ltr;&quot;&gt;&lt;font style=&quot;font-size:14px;font-family:Arial;color:#333333;direction:ltr;letter-spacing:0px;line-height:100%;opacity:1&quot;&gt;Tornado&lt;/font&gt;&lt;font style=&quot;font-size:14px;font-family:Arial;color:#000000;direction:ltr;letter-spacing:0px;line-height:100%;opacity:1&quot;&gt; &lt;/font&gt;&lt;/p&gt;" style="text;vsdxID=52;fillColor=none;gradientColor=none;strokeColor=none;strokeWidth=2;spacingTop=-3;spacingBottom=-3;spacingLeft=-3;spacingRight=-3;labelBackgroundColor=none;rounded=1;html=1;whiteSpace=wrap;verticalAlign=middle;align=center;;html=1;" vertex="1" parent="My5se-Vcou2Nvby08xZH-87">
          <mxGeometry x="7.62" y="7.42" width="86.36" height="60.96" as="geometry" />
        </mxCell>
        <mxCell id="My5se-Vcou2Nvby08xZH-90" style="vsdxID=54;fillColor=none;gradientColor=none;strokeColor=none;strokeWidth=2;spacingTop=-3;spacingBottom=-3;spacingLeft=-3;spacingRight=-3;labelBackgroundColor=none;rounded=1;html=1;whiteSpace=wrap;" vertex="1" parent="1">
          <mxGeometry x="660" y="904" width="101" height="76" as="geometry" />
        </mxCell>
        <mxCell id="My5se-Vcou2Nvby08xZH-91" style="vsdxID=55;fillColor=#FFFFFF;gradientColor=none;shape=stencil(fZNbEoIwDEVX018mNOODT8fHBlwBA1U6IjgVFVy9hbTSFvSvaW4mJ7cNw+29SG+Ccbg3qr6Il8ybguGOcS6rQijZ6BPDPcPtqVbirOpHlVN8S7WSw3AjcqqJezWHVGVH+RZ0BxHGqwUlqPJaP/uOrclTqqOIhAcSZg9FytiXmpBHRg4tN/2jZWI03CtpkUKMLEqHrmBoCBvds5SVA5csvz26iX4KmKz1sD4kBIQAPqAzBIYSnHgygzjKDcNfC0e1RV59LbGM7hQhtoV0jQm4f4E63s8UzKCOjxnCt/7rWkp3FvQVODVnBvHPX9SH4cfTLsiypIVx8+GG6CvaLtx/AA==);strokeColor=#5e5e5e;strokeWidth=2;spacingTop=-3;spacingBottom=-3;spacingLeft=-3;spacingRight=-3;labelBackgroundColor=none;rounded=1;html=1;whiteSpace=wrap;" vertex="1" parent="My5se-Vcou2Nvby08xZH-90">
          <mxGeometry width="101" height="76" as="geometry" />
        </mxCell>
        <mxCell id="My5se-Vcou2Nvby08xZH-92" value="&lt;p style=&quot;align:center;margin-left:0;margin-right:0;margin-top:0px;margin-bottom:0px;text-indent:0;valign:middle;direction:ltr;&quot;&gt;&lt;font style=&quot;font-size:14px;font-family:Arial;color:#333333;direction:ltr;letter-spacing:0px;line-height:100%;opacity:1&quot;&gt;Prosthetic&lt;/font&gt;&lt;font style=&quot;font-size:14px;font-family:Arial;color:#000000;direction:ltr;letter-spacing:0px;line-height:100%;opacity:1&quot;&gt; &lt;/font&gt;&lt;/p&gt;" style="text;vsdxID=54;fillColor=none;gradientColor=none;strokeColor=none;strokeWidth=2;spacingTop=-3;spacingBottom=-3;spacingLeft=-3;spacingRight=-3;labelBackgroundColor=none;rounded=1;html=1;whiteSpace=wrap;verticalAlign=middle;align=center;;html=1;" vertex="1" parent="My5se-Vcou2Nvby08xZH-90">
          <mxGeometry x="7.62" y="7.42" width="86.36" height="60.96" as="geometry" />
        </mxCell>
        <mxCell id="My5se-Vcou2Nvby08xZH-93" style="vsdxID=56;fillColor=none;gradientColor=none;strokeColor=none;strokeWidth=2;spacingTop=-3;spacingBottom=-3;spacingLeft=-3;spacingRight=-3;labelBackgroundColor=none;rounded=1;html=1;whiteSpace=wrap;" vertex="1" parent="1">
          <mxGeometry x="457" y="1028" width="101" height="76" as="geometry" />
        </mxCell>
        <mxCell id="My5se-Vcou2Nvby08xZH-94" style="vsdxID=57;fillColor=#FFFFFF;gradientColor=none;shape=stencil(fZNbEoIwDEVX018mNOODT8fHBlwBA1U6IjgVFVy9hbTSFvSvaW4mJ7cNw+29SG+Ccbg3qr6Il8ybguGOcS6rQijZ6BPDPcPtqVbirOpHlVN8S7WSw3AjcqqJezWHVGVH+RZ0BxHGqwUlqPJaP/uOrclTqqOIhAcSZg9FytiXmpBHRg4tN/2jZWI03CtpkUKMLEqHrmBoCBvds5SVA5csvz26iX4KmKz1sD4kBIQAPqAzBIYSnHgygzjKDcNfC0e1RV59LbGM7hQhtoV0jQm4f4E63s8UzKCOjxnCt/7rWkp3FvQVODVnBvHPX9SH4cfTLsiypIVx8+GG6CvaLtx/AA==);strokeColor=#5e5e5e;strokeWidth=2;spacingTop=-3;spacingBottom=-3;spacingLeft=-3;spacingRight=-3;labelBackgroundColor=none;rounded=1;html=1;whiteSpace=wrap;" vertex="1" parent="My5se-Vcou2Nvby08xZH-93">
          <mxGeometry width="101" height="76" as="geometry" />
        </mxCell>
        <mxCell id="My5se-Vcou2Nvby08xZH-95" value="&lt;p style=&quot;align:center;margin-left:0;margin-right:0;margin-top:0px;margin-bottom:0px;text-indent:0;valign:middle;direction:ltr;&quot;&gt;&lt;font style=&quot;font-size:14px;font-family:Arial;color:#333333;direction:ltr;letter-spacing:0px;line-height:100%;opacity:1&quot;&gt;Non-Boot&lt;/font&gt;&lt;/p&gt;" style="text;vsdxID=56;fillColor=none;gradientColor=none;strokeColor=none;strokeWidth=2;spacingTop=-3;spacingBottom=-3;spacingLeft=-3;spacingRight=-3;labelBackgroundColor=none;rounded=1;html=1;whiteSpace=wrap;verticalAlign=middle;align=center;;html=1;" vertex="1" parent="My5se-Vcou2Nvby08xZH-93">
          <mxGeometry x="7.62" y="7.42" width="86.36" height="60.96" as="geometry" />
        </mxCell>
        <mxCell id="My5se-Vcou2Nvby08xZH-96" style="vsdxID=58;fillColor=none;gradientColor=none;strokeColor=none;strokeWidth=2;spacingTop=-3;spacingBottom=-3;spacingLeft=-3;spacingRight=-3;labelBackgroundColor=none;rounded=1;html=1;whiteSpace=wrap;" vertex="1" parent="1">
          <mxGeometry x="660" y="1130" width="101" height="76" as="geometry" />
        </mxCell>
        <mxCell id="My5se-Vcou2Nvby08xZH-97" style="vsdxID=59;fillColor=#FFFFFF;gradientColor=none;shape=stencil(fZNbEoIwDEVX018mNOODT8fHBlwBA1U6IjgVFVy9hbTSFvSvaW4mJ7cNw+29SG+Ccbg3qr6Il8ybguGOcS6rQijZ6BPDPcPtqVbirOpHlVN8S7WSw3AjcqqJezWHVGVH+RZ0BxHGqwUlqPJaP/uOrclTqqOIhAcSZg9FytiXmpBHRg4tN/2jZWI03CtpkUKMLEqHrmBoCBvds5SVA5csvz26iX4KmKz1sD4kBIQAPqAzBIYSnHgygzjKDcNfC0e1RV59LbGM7hQhtoV0jQm4f4E63s8UzKCOjxnCt/7rWkp3FvQVODVnBvHPX9SH4cfTLsiypIVx8+GG6CvaLtx/AA==);strokeColor=#5e5e5e;strokeWidth=2;spacingTop=-3;spacingBottom=-3;spacingLeft=-3;spacingRight=-3;labelBackgroundColor=none;rounded=1;html=1;whiteSpace=wrap;" vertex="1" parent="My5se-Vcou2Nvby08xZH-96">
          <mxGeometry width="101" height="76" as="geometry" />
        </mxCell>
        <mxCell id="My5se-Vcou2Nvby08xZH-98" value="&lt;p style=&quot;align:center;margin-left:0;margin-right:0;margin-top:0px;margin-bottom:0px;text-indent:0;valign:middle;direction:ltr;&quot;&gt;&lt;font style=&quot;font-size:14px;font-family:Arial;color:#333333;direction:ltr;letter-spacing:0px;line-height:100%;opacity:1&quot;&gt;Deby #2&lt;/font&gt;&lt;font style=&quot;font-size:14px;font-family:Arial;color:#000000;direction:ltr;letter-spacing:0px;line-height:100%;opacity:1&quot;&gt; &lt;/font&gt;&lt;/p&gt;" style="text;vsdxID=58;fillColor=none;gradientColor=none;strokeColor=none;strokeWidth=2;spacingTop=-3;spacingBottom=-3;spacingLeft=-3;spacingRight=-3;labelBackgroundColor=none;rounded=1;html=1;whiteSpace=wrap;verticalAlign=middle;align=center;;html=1;" vertex="1" parent="My5se-Vcou2Nvby08xZH-96">
          <mxGeometry x="7.62" y="7.42" width="86.36" height="60.96" as="geometry" />
        </mxCell>
        <mxCell id="My5se-Vcou2Nvby08xZH-99" style="vsdxID=60;fillColor=none;gradientColor=none;strokeColor=none;strokeWidth=2;spacingTop=-3;spacingBottom=-3;spacingLeft=-3;spacingRight=-3;labelBackgroundColor=none;rounded=1;html=1;whiteSpace=wrap;" vertex="1" parent="1">
          <mxGeometry x="660" y="1333" width="101" height="76" as="geometry" />
        </mxCell>
        <mxCell id="My5se-Vcou2Nvby08xZH-100" style="vsdxID=61;fillColor=#FFFFFF;gradientColor=none;shape=stencil(fZNbEoIwDEVX018mNOODT8fHBlwBA1U6IjgVFVy9hbTSFvSvaW4mJ7cNw+29SG+Ccbg3qr6Il8ybguGOcS6rQijZ6BPDPcPtqVbirOpHlVN8S7WSw3AjcqqJezWHVGVH+RZ0BxHGqwUlqPJaP/uOrclTqqOIhAcSZg9FytiXmpBHRg4tN/2jZWI03CtpkUKMLEqHrmBoCBvds5SVA5csvz26iX4KmKz1sD4kBIQAPqAzBIYSnHgygzjKDcNfC0e1RV59LbGM7hQhtoV0jQm4f4E63s8UzKCOjxnCt/7rWkp3FvQVODVnBvHPX9SH4cfTLsiypIVx8+GG6CvaLtx/AA==);strokeColor=#5e5e5e;strokeWidth=2;spacingTop=-3;spacingBottom=-3;spacingLeft=-3;spacingRight=-3;labelBackgroundColor=none;rounded=1;html=1;whiteSpace=wrap;" vertex="1" parent="My5se-Vcou2Nvby08xZH-99">
          <mxGeometry width="101" height="76" as="geometry" />
        </mxCell>
        <mxCell id="My5se-Vcou2Nvby08xZH-101" value="&lt;p style=&quot;align:center;margin-left:0;margin-right:0;margin-top:0px;margin-bottom:0px;text-indent:0;valign:middle;direction:ltr;&quot;&gt;&lt;font style=&quot;font-size:14px;font-family:Arial;color:#333333;direction:ltr;letter-spacing:0px;line-height:100%;opacity:1&quot;&gt;GAT&lt;/font&gt;&lt;/p&gt;" style="text;vsdxID=60;fillColor=none;gradientColor=none;strokeColor=none;strokeWidth=2;spacingTop=-3;spacingBottom=-3;spacingLeft=-3;spacingRight=-3;labelBackgroundColor=none;rounded=1;html=1;whiteSpace=wrap;verticalAlign=middle;align=center;;html=1;" vertex="1" parent="My5se-Vcou2Nvby08xZH-99">
          <mxGeometry x="7.62" y="7.42" width="86.36" height="60.96" as="geometry" />
        </mxCell>
        <mxCell id="My5se-Vcou2Nvby08xZH-102" style="vsdxID=62;fillColor=none;gradientColor=none;strokeColor=none;strokeWidth=2;spacingTop=-3;spacingBottom=-3;spacingLeft=-3;spacingRight=-3;labelBackgroundColor=none;rounded=1;html=1;whiteSpace=wrap;" vertex="1" parent="1">
          <mxGeometry x="660" y="1231" width="101" height="76" as="geometry" />
        </mxCell>
        <mxCell id="My5se-Vcou2Nvby08xZH-103" style="vsdxID=63;fillColor=#FFFFFF;gradientColor=none;shape=stencil(fZNbEoIwDEVX018mNOODT8fHBlwBA1U6IjgVFVy9hbTSFvSvaW4mJ7cNw+29SG+Ccbg3qr6Il8ybguGOcS6rQijZ6BPDPcPtqVbirOpHlVN8S7WSw3AjcqqJezWHVGVH+RZ0BxHGqwUlqPJaP/uOrclTqqOIhAcSZg9FytiXmpBHRg4tN/2jZWI03CtpkUKMLEqHrmBoCBvds5SVA5csvz26iX4KmKz1sD4kBIQAPqAzBIYSnHgygzjKDcNfC0e1RV59LbGM7hQhtoV0jQm4f4E63s8UzKCOjxnCt/7rWkp3FvQVODVnBvHPX9SH4cfTLsiypIVx8+GG6CvaLtx/AA==);strokeColor=#5e5e5e;strokeWidth=2;spacingTop=-3;spacingBottom=-3;spacingLeft=-3;spacingRight=-3;labelBackgroundColor=none;rounded=1;html=1;whiteSpace=wrap;" vertex="1" parent="My5se-Vcou2Nvby08xZH-102">
          <mxGeometry width="101" height="76" as="geometry" />
        </mxCell>
        <mxCell id="My5se-Vcou2Nvby08xZH-104" value="&lt;p style=&quot;align:center;margin-left:0;margin-right:0;margin-top:0px;margin-bottom:0px;text-indent:0;valign:middle;direction:ltr;&quot;&gt;&lt;font style=&quot;font-size:14px;font-family:Arial;color:#333333;direction:ltr;letter-spacing:0px;line-height:100%;opacity:1&quot;&gt;Runners&lt;/font&gt;&lt;/p&gt;" style="text;vsdxID=62;fillColor=none;gradientColor=none;strokeColor=none;strokeWidth=2;spacingTop=-3;spacingBottom=-3;spacingLeft=-3;spacingRight=-3;labelBackgroundColor=none;rounded=1;html=1;whiteSpace=wrap;verticalAlign=middle;align=center;;html=1;" vertex="1" parent="My5se-Vcou2Nvby08xZH-102">
          <mxGeometry x="7.62" y="7.42" width="86.36" height="60.96" as="geometry" />
        </mxCell>
        <mxCell id="My5se-Vcou2Nvby08xZH-105" style="vsdxID=66;fillColor=none;gradientColor=none;strokeColor=none;strokeWidth=2;spacingTop=-3;spacingBottom=-3;spacingLeft=-3;spacingRight=-3;labelBackgroundColor=none;rounded=1;html=1;whiteSpace=wrap;" vertex="1" parent="1">
          <mxGeometry x="850" y="603" width="101" height="76" as="geometry" />
        </mxCell>
        <mxCell id="My5se-Vcou2Nvby08xZH-106" style="vsdxID=67;fillColor=#FFFFFF;gradientColor=none;shape=stencil(hZNLEoIwDIZP0y1TEhFZOj4u4AkYqdIRwan4wNNbSMdJqSirJvlDvqSNwNW1zC9KgLy2pjmphy7aUuBaAOi6VEa39iRwI3B1aIw6muZWF2RfcqsEOXhUQTlxrwaZm/1OvxT5ZIRxmlCAMs/Nva/4pPgspVhHJg7WlpT7myFp7LSLaJ45uXPFEULGvgX9QD6B4okVOKwO/qSgS3F2hwGSXFqqSteMP/P5XTsTDWRhA31Pqc/MVayNEeansI89xfnpysue4ORTY+gjzlnIyVU4umAMK3/h9DGTn+8hpORzgkAE4cjRr4rhLX5h/PVm7WFYDVoaXVW0WTw+XiXrojXEzRs=);strokeColor=#5e5e5e;strokeWidth=2;spacingTop=-3;spacingBottom=-3;spacingLeft=-3;spacingRight=-3;labelBackgroundColor=none;rounded=1;html=1;whiteSpace=wrap;" vertex="1" parent="My5se-Vcou2Nvby08xZH-105">
          <mxGeometry width="101" height="76" as="geometry" />
        </mxCell>
        <mxCell id="My5se-Vcou2Nvby08xZH-107" value="&lt;p style=&quot;align:center;margin-left:0;margin-right:0;margin-top:0px;margin-bottom:0px;text-indent:0;valign:middle;direction:ltr;&quot;&gt;&lt;font style=&quot;font-size:14px;font-family:Arial;color:#333333;direction:ltr;letter-spacing:0px;line-height:100%;opacity:1&quot;&gt;Repair&lt;/font&gt;&lt;/p&gt;" style="text;vsdxID=66;fillColor=none;gradientColor=none;strokeColor=none;strokeWidth=2;spacingTop=-3;spacingBottom=-3;spacingLeft=-3;spacingRight=-3;labelBackgroundColor=none;rounded=1;html=1;whiteSpace=wrap;verticalAlign=middle;align=center;;html=1;" vertex="1" parent="My5se-Vcou2Nvby08xZH-105">
          <mxGeometry x="3.17" y="2.98" width="95.25" height="69.85" as="geometry" />
        </mxCell>
        <mxCell id="My5se-Vcou2Nvby08xZH-108" style="vsdxID=69;fillColor=none;gradientColor=none;strokeColor=none;strokeWidth=2;spacingTop=-3;spacingBottom=-3;spacingLeft=-3;spacingRight=-3;labelBackgroundColor=none;rounded=1;html=1;whiteSpace=wrap;" vertex="1" parent="1">
          <mxGeometry x="850" y="703" width="101" height="76" as="geometry" />
        </mxCell>
        <mxCell id="My5se-Vcou2Nvby08xZH-109" style="vsdxID=70;fillColor=#FFFFFF;gradientColor=none;shape=stencil(hZNLEoIwDIZP0y1TEhFZOj4u4AkYqdIRwan4wNNbSMdJqSirJvlDvqSNwNW1zC9KgLy2pjmphy7aUuBaAOi6VEa39iRwI3B1aIw6muZWF2RfcqsEOXhUQTlxrwaZm/1OvxT5ZIRxmlCAMs/Nva/4pPgspVhHJg7WlpT7myFp7LSLaJ45uXPFEULGvgX9QD6B4okVOKwO/qSgS3F2hwGSXFqqSteMP/P5XTsTDWRhA31Pqc/MVayNEeansI89xfnpysue4ORTY+gjzlnIyVU4umAMK3/h9DGTn+8hpORzgkAE4cjRr4rhLX5h/PVm7WFYDVoaXVW0WTw+XiXrojXEzRs=);strokeColor=#5e5e5e;strokeWidth=2;spacingTop=-3;spacingBottom=-3;spacingLeft=-3;spacingRight=-3;labelBackgroundColor=none;rounded=1;html=1;whiteSpace=wrap;" vertex="1" parent="My5se-Vcou2Nvby08xZH-108">
          <mxGeometry width="101" height="76" as="geometry" />
        </mxCell>
        <mxCell id="My5se-Vcou2Nvby08xZH-110" value="&lt;p style=&quot;align:center;margin-left:0;margin-right:0;margin-top:0px;margin-bottom:0px;text-indent:0;valign:middle;direction:ltr;&quot;&gt;&lt;font style=&quot;font-size:14px;font-family:Arial;color:#333333;direction:ltr;letter-spacing:0px;line-height:100%;opacity:1&quot;&gt;Sell&lt;/font&gt;&lt;/p&gt;" style="text;vsdxID=69;fillColor=none;gradientColor=none;strokeColor=none;strokeWidth=2;spacingTop=-3;spacingBottom=-3;spacingLeft=-3;spacingRight=-3;labelBackgroundColor=none;rounded=1;html=1;whiteSpace=wrap;verticalAlign=middle;align=center;;html=1;" vertex="1" parent="My5se-Vcou2Nvby08xZH-108">
          <mxGeometry x="3.17" y="2.98" width="95.25" height="69.85" as="geometry" />
        </mxCell>
        <mxCell id="My5se-Vcou2Nvby08xZH-111" style="vsdxID=72;fillColor=none;gradientColor=none;strokeColor=none;strokeWidth=2;spacingTop=-3;spacingBottom=-3;spacingLeft=-3;spacingRight=-3;labelBackgroundColor=none;rounded=1;html=1;whiteSpace=wrap;" vertex="1" parent="1">
          <mxGeometry x="850" y="803" width="101" height="76" as="geometry" />
        </mxCell>
        <mxCell id="My5se-Vcou2Nvby08xZH-112" style="vsdxID=73;fillColor=#FFFFFF;gradientColor=none;shape=stencil(hZNLEoIwDIZP0y1TEhFZOj4u4AkYqdIRwan4wNNbSMdJqSirJvlDvqSNwNW1zC9KgLy2pjmphy7aUuBaAOi6VEa39iRwI3B1aIw6muZWF2RfcqsEOXhUQTlxrwaZm/1OvxT5ZIRxmlCAMs/Nva/4pPgspVhHJg7WlpT7myFp7LSLaJ45uXPFEULGvgX9QD6B4okVOKwO/qSgS3F2hwGSXFqqSteMP/P5XTsTDWRhA31Pqc/MVayNEeansI89xfnpysue4ORTY+gjzlnIyVU4umAMK3/h9DGTn+8hpORzgkAE4cjRr4rhLX5h/PVm7WFYDVoaXVW0WTw+XiXrojXEzRs=);strokeColor=#5e5e5e;strokeWidth=2;spacingTop=-3;spacingBottom=-3;spacingLeft=-3;spacingRight=-3;labelBackgroundColor=none;rounded=1;html=1;whiteSpace=wrap;" vertex="1" parent="My5se-Vcou2Nvby08xZH-111">
          <mxGeometry width="101" height="76" as="geometry" />
        </mxCell>
        <mxCell id="My5se-Vcou2Nvby08xZH-113" value="&lt;p style=&quot;align:center;margin-left:0;margin-right:0;margin-top:0px;margin-bottom:0px;text-indent:0;valign:middle;direction:ltr;&quot;&gt;&lt;font style=&quot;font-size:14px;font-family:Arial;color:#333333;direction:ltr;letter-spacing:0px;line-height:100%;opacity:1&quot;&gt;Not sure&lt;/font&gt;&lt;/p&gt;" style="text;vsdxID=72;fillColor=none;gradientColor=none;strokeColor=none;strokeWidth=2;spacingTop=-3;spacingBottom=-3;spacingLeft=-3;spacingRight=-3;labelBackgroundColor=none;rounded=1;html=1;whiteSpace=wrap;verticalAlign=middle;align=center;;html=1;" vertex="1" parent="My5se-Vcou2Nvby08xZH-111">
          <mxGeometry x="3.17" y="2.98" width="95.25" height="69.85" as="geometry" />
        </mxCell>
        <mxCell id="My5se-Vcou2Nvby08xZH-114" style="vsdxID=76;fillColor=none;gradientColor=none;strokeColor=none;strokeWidth=2;spacingTop=-3;spacingBottom=-3;spacingLeft=-3;spacingRight=-3;labelBackgroundColor=none;rounded=1;html=1;whiteSpace=wrap;" vertex="1" parent="1">
          <mxGeometry x="850" y="904" width="101" height="76" as="geometry" />
        </mxCell>
        <mxCell id="My5se-Vcou2Nvby08xZH-115" style="vsdxID=77;fillColor=#FFFFFF;gradientColor=none;shape=stencil(hZNLEoIwDIZP0y1TEhFZOj4u4AkYqdIRwan4wNNbSMdJqSirJvlDvqSNwNW1zC9KgLy2pjmphy7aUuBaAOi6VEa39iRwI3B1aIw6muZWF2RfcqsEOXhUQTlxrwaZm/1OvxT5ZIRxmlCAMs/Nva/4pPgspVhHJg7WlpT7myFp7LSLaJ45uXPFEULGvgX9QD6B4okVOKwO/qSgS3F2hwGSXFqqSteMP/P5XTsTDWRhA31Pqc/MVayNEeansI89xfnpysue4ORTY+gjzlnIyVU4umAMK3/h9DGTn+8hpORzgkAE4cjRr4rhLX5h/PVm7WFYDVoaXVW0WTw+XiXrojXEzRs=);strokeColor=#5e5e5e;strokeWidth=2;spacingTop=-3;spacingBottom=-3;spacingLeft=-3;spacingRight=-3;labelBackgroundColor=none;rounded=1;html=1;whiteSpace=wrap;" vertex="1" parent="My5se-Vcou2Nvby08xZH-114">
          <mxGeometry width="101" height="76" as="geometry" />
        </mxCell>
        <mxCell id="My5se-Vcou2Nvby08xZH-116" value="&lt;p style=&quot;align:center;margin-left:0;margin-right:0;margin-top:0px;margin-bottom:0px;text-indent:0;valign:middle;direction:ltr;&quot;&gt;&lt;font style=&quot;font-size:14px;font-family:Arial;color:#333333;direction:ltr;letter-spacing:0px;line-height:100%;opacity:1&quot;&gt;Not sure&lt;/font&gt;&lt;/p&gt;" style="text;vsdxID=76;fillColor=none;gradientColor=none;strokeColor=none;strokeWidth=2;spacingTop=-3;spacingBottom=-3;spacingLeft=-3;spacingRight=-3;labelBackgroundColor=none;rounded=1;html=1;whiteSpace=wrap;verticalAlign=middle;align=center;;html=1;" vertex="1" parent="My5se-Vcou2Nvby08xZH-114">
          <mxGeometry x="3.17" y="2.98" width="95.25" height="69.85" as="geometry" />
        </mxCell>
        <mxCell id="My5se-Vcou2Nvby08xZH-117" style="vsdxID=82;fillColor=none;gradientColor=none;strokeColor=none;strokeWidth=2;spacingTop=-3;spacingBottom=-3;spacingLeft=-3;spacingRight=-3;labelBackgroundColor=none;rounded=1;html=1;whiteSpace=wrap;" vertex="1" parent="1">
          <mxGeometry x="660" y="1028" width="101" height="76" as="geometry" />
        </mxCell>
        <mxCell id="My5se-Vcou2Nvby08xZH-118" style="vsdxID=83;fillColor=#FFFFFF;gradientColor=none;shape=stencil(fZNbEoIwDEVX018mNOODT8fHBlwBA1U6IjgVFVy9hbTSFvSvaW4mJ7cNw+29SG+Ccbg3qr6Il8ybguGOcS6rQijZ6BPDPcPtqVbirOpHlVN8S7WSw3AjcqqJezWHVGVH+RZ0BxHGqwUlqPJaP/uOrclTqqOIhAcSZg9FytiXmpBHRg4tN/2jZWI03CtpkUKMLEqHrmBoCBvds5SVA5csvz26iX4KmKz1sD4kBIQAPqAzBIYSnHgygzjKDcNfC0e1RV59LbGM7hQhtoV0jQm4f4E63s8UzKCOjxnCt/7rWkp3FvQVODVnBvHPX9SH4cfTLsiypIVx8+GG6CvaLtx/AA==);strokeColor=#5e5e5e;strokeWidth=2;spacingTop=-3;spacingBottom=-3;spacingLeft=-3;spacingRight=-3;labelBackgroundColor=none;rounded=1;html=1;whiteSpace=wrap;" vertex="1" parent="My5se-Vcou2Nvby08xZH-117">
          <mxGeometry width="101" height="76" as="geometry" />
        </mxCell>
        <mxCell id="My5se-Vcou2Nvby08xZH-119" value="&lt;p style=&quot;align:center;margin-left:0;margin-right:0;margin-top:0px;margin-bottom:0px;text-indent:0;valign:middle;direction:ltr;&quot;&gt;&lt;font style=&quot;font-size:14px;font-family:Arial;color:#333333;direction:ltr;letter-spacing:0px;line-height:100%;opacity:1&quot;&gt;Deby #1&lt;/font&gt;&lt;font style=&quot;font-size:14px;font-family:Arial;color:#000000;direction:ltr;letter-spacing:0px;line-height:100%;opacity:1&quot;&gt; &lt;/font&gt;&lt;/p&gt;" style="text;vsdxID=82;fillColor=none;gradientColor=none;strokeColor=none;strokeWidth=2;spacingTop=-3;spacingBottom=-3;spacingLeft=-3;spacingRight=-3;labelBackgroundColor=none;rounded=1;html=1;whiteSpace=wrap;verticalAlign=middle;align=center;;html=1;" vertex="1" parent="My5se-Vcou2Nvby08xZH-117">
          <mxGeometry x="7.62" y="7.42" width="86.36" height="60.96" as="geometry" />
        </mxCell>
        <mxCell id="My5se-Vcou2Nvby08xZH-120" style="vsdxID=88;fillColor=none;gradientColor=none;strokeColor=none;strokeWidth=2;spacingTop=-3;spacingBottom=-3;spacingLeft=-3;spacingRight=-3;labelBackgroundColor=none;rounded=1;html=1;whiteSpace=wrap;" vertex="1" parent="1">
          <mxGeometry x="457" y="1181" width="101" height="76" as="geometry" />
        </mxCell>
        <mxCell id="My5se-Vcou2Nvby08xZH-121" style="vsdxID=89;fillColor=#FFFFFF;gradientColor=none;shape=stencil(fZNbEoIwDEVX018mNOODT8fHBlwBA1U6IjgVFVy9hbTSFvSvaW4mJ7cNw+29SG+Ccbg3qr6Il8ybguGOcS6rQijZ6BPDPcPtqVbirOpHlVN8S7WSw3AjcqqJezWHVGVH+RZ0BxHGqwUlqPJaP/uOrclTqqOIhAcSZg9FytiXmpBHRg4tN/2jZWI03CtpkUKMLEqHrmBoCBvds5SVA5csvz26iX4KmKz1sD4kBIQAPqAzBIYSnHgygzjKDcNfC0e1RV59LbGM7hQhtoV0jQm4f4E63s8UzKCOjxnCt/7rWkp3FvQVODVnBvHPX9SH4cfTLsiypIVx8+GG6CvaLtx/AA==);strokeColor=#5e5e5e;strokeWidth=2;spacingTop=-3;spacingBottom=-3;spacingLeft=-3;spacingRight=-3;labelBackgroundColor=none;rounded=1;html=1;whiteSpace=wrap;" vertex="1" parent="My5se-Vcou2Nvby08xZH-120">
          <mxGeometry width="101" height="76" as="geometry" />
        </mxCell>
        <mxCell id="My5se-Vcou2Nvby08xZH-122" value="&lt;p style=&quot;align:center;margin-left:0;margin-right:0;margin-top:0px;margin-bottom:0px;text-indent:0;valign:middle;direction:ltr;&quot;&gt;&lt;font style=&quot;font-size:14px;font-family:Arial;color:#333333;direction:ltr;letter-spacing:0px;line-height:100%;opacity:1&quot;&gt;MA+ Belt&lt;/font&gt;&lt;/p&gt;" style="text;vsdxID=88;fillColor=none;gradientColor=none;strokeColor=none;strokeWidth=2;spacingTop=-3;spacingBottom=-3;spacingLeft=-3;spacingRight=-3;labelBackgroundColor=none;rounded=1;html=1;whiteSpace=wrap;verticalAlign=middle;align=center;;html=1;" vertex="1" parent="My5se-Vcou2Nvby08xZH-120">
          <mxGeometry x="7.62" y="7.42" width="86.36" height="60.96" as="geometry" />
        </mxCell>
        <mxCell id="My5se-Vcou2Nvby08xZH-123" style="edgeStyle=orthogonalEdgeStyle;rounded=0;orthogonalLoop=1;jettySize=auto;html=1;entryX=0;entryY=0.5;entryDx=0;entryDy=0;" edge="1" parent="1" source="My5se-Vcou2Nvby08xZH-5" target="My5se-Vcou2Nvby08xZH-10">
          <mxGeometry relative="1" as="geometry" />
        </mxCell>
      </root>
    </mxGraphModel>
  </diagram>
</mxfile>
